M48
;Layer_Color=9474304
;FILE_FORMAT=2:5
INCH,LZ
;TYPE=PLATED
T01F00S00C0.00984
T02F00S00C0.01378
;TYPE=NON_PLATED
T04F00S00C0.03543
T05F00S00C0.07087
%
T01
X0337008Y0384646
X0438976Y0390158
X0443701Y0390158
X0448425
X0452362Y0398031
X0448819Y0404331
X0444095
X0451279Y0408563
X0455905Y0412992
X0441339Y0414173
X0441732Y0419685
X0427953Y0414173
Y0409449
X0424803Y0404724
X0426181Y042815
X0422244
X0418307
Y0441732
X0422244
X0426181
X0426575Y0435236
X0413386Y0437795
X0395276Y0438976
X0392717Y0436221
X0382874
X0367126Y0438976
X0371063Y042874
Y0425591
Y0422441
X0363189Y0418307
X0361024Y0427165
X0354331Y0429134
X0348425Y042815
X0344488Y0437402
X0349606Y0411024
X0344488Y0397638
X0341535
X0369291Y046063
X0379921Y0461024
X0379937Y0471242
X0383071Y0474409
X0387402Y0476772
X0384252Y0491339
X0386221Y0502362
X0388976Y05
X0378346Y0502362
X0379528Y0513386
X0379724Y0516732
X0377559Y0522047
X0379134Y0524803
X0383465Y0526378
X0390748Y0528925
X0393701Y0520472
X0395276Y0515354
X0407874Y0519291
X0409055Y0522441
X0406693Y0530315
X0409449Y0535827
X0403937Y0540945
X0418898Y0538976
X0419685Y0535039
X0419488Y0531102
X0419488Y0526772
X0430315Y0528346
Y0518898
X0425984Y0505905
X0419488Y0503937
X0416536Y0515158
X0412598Y0514173
X0405118Y0500394
X0401575Y0471299
X0398622Y0464724
X0416308Y0464525
X0419261Y0471415
X0431102Y0470079
Y0482283
X0443504Y0464567
X0446457Y0466929
X0449409Y0459842
X0452362Y0462205
X0465354Y0457087
X0459449Y0446457
X0466142Y040315
X0465747Y0398055
X04Y0445669
X0367717Y0472047
Y0497244
X0364961Y0494488
X0362205Y0497244
X0364173Y0501968
X0363779Y0505905
X0367323Y0506299
X0368504Y0509449
X036811Y0513386
X0351575Y0515748
X035Y0521457
X0354331
X0344882Y0520079
X0343701Y0525591
X035Y0532874
X0355906
X0358661Y0540945
X0361024Y0538583
X0365354Y0544488
X036811Y0532874
X0355118Y0503937
X0440945
X0443701Y0530315
X043689Y054685
X0338268Y0522441
X0334646Y0522441
X0330315Y0509055
X0330315Y0498819
X0340551Y0498425
X0340551Y0494882
X0330315Y0467323
X0326772
X0323228
X0325984Y0418898
X0322441Y0412992
X0329183Y040748
X0332677
X0336417Y0426772
X0316929Y0393307
X0341339Y0606299
Y0618504
X0340551Y0669685
X0343701
X0345276Y0648819
X0342126
X0350394Y0616535
X0344882Y0606299
X0367323Y060748
X037874Y0603642
Y0599902
X0386221Y0596063
X0388937Y059252
X0398465Y059252
X0405315Y059065
X0412598Y059252
X0412992Y0598425
X0414961Y060315
X0421752Y0609842
X0427559Y06
X0424213Y057874
Y0574409
X0424213Y0570079
X0421654Y0565354
X0413779Y0562992
X0409055Y0565748
X0408268Y0559842
X0397638Y0557087
X0393701Y055748
X0390158
X0386614
X0398425Y0570472
Y0577559
X0399213Y0600787
X0398819Y0605905
X0385433Y0611319
X0382677Y060876
X0373268Y0592677
X0377165Y0587795
X0363583Y0584252
Y0579921
X0363382Y0575634
X0364567Y0567323
X0366929Y0564173
X0363386Y0561417
X0370472Y0567323
X035748Y0571654
Y0585827
X036374Y0592913
X0341457Y0577855
X0346457Y0555512
X0359449Y0551181
X0426772Y0550138
X0437008
X0437402Y0554331
Y0558268
X0442913
X0451969Y0571654
Y0585827
X0435945Y0577855
X0427165Y0648032
T02
X0384252Y042374
X0387402
X0390551
X0392126Y0426496
X0388976
X0385827
X0382677
X0395276
X0398425
X0401575
X0404724
X040315Y042374
X04
X039685
T04
X033163Y0441498
X0326638Y0452203
T05
X0393701Y0444882
X0354331Y0496063
X0433071
M30
