G04*
G04 #@! TF.GenerationSoftware,Altium Limited,Altium Designer,24.2.2 (26)*
G04*
G04 Layer_Color=16711935*
%FSLAX25Y25*%
%MOIN*%
G70*
G04*
G04 #@! TF.SameCoordinates,A7374CB3-C572-496A-BD66-24450F52A8E5*
G04*
G04*
G04 #@! TF.FilePolarity,Negative*
G04*
G01*
G75*
%ADD10C,0.00394*%
%ADD46R,0.03162X0.03162*%
%ADD47R,0.03162X0.04737*%
%ADD49R,0.03162X0.03162*%
%ADD52R,0.02913X0.02913*%
%ADD54R,0.04737X0.03162*%
%ADD58R,0.04343X0.03950*%
%ADD67R,0.03950X0.04343*%
%ADD78C,0.02953*%
%ADD79C,0.02756*%
%ADD80O,0.04737X0.07099*%
%ADD81C,0.06706*%
%ADD82C,0.04343*%
%ADD83C,0.01378*%
%ADD116R,0.01181X0.04331*%
%ADD117R,0.01575X0.05118*%
G04:AMPARAMS|DCode=118|XSize=43.43mil|YSize=39.5mil|CornerRadius=0mil|HoleSize=0mil|Usage=FLASHONLY|Rotation=315.000|XOffset=0mil|YOffset=0mil|HoleType=Round|Shape=Rectangle|*
%AMROTATEDRECTD118*
4,1,4,-0.02932,0.00139,-0.00139,0.02932,0.02932,-0.00139,0.00139,-0.02932,-0.02932,0.00139,0.0*
%
%ADD118ROTATEDRECTD118*%

%ADD119R,0.02913X0.02913*%
%ADD120O,0.06509X0.03162*%
G04:AMPARAMS|DCode=121|XSize=19.81mil|YSize=47.37mil|CornerRadius=0mil|HoleSize=0mil|Usage=FLASHONLY|Rotation=308.500|XOffset=0mil|YOffset=0mil|HoleType=Round|Shape=Rectangle|*
%AMROTATEDRECTD121*
4,1,4,-0.02470,-0.00699,0.01237,0.02250,0.02470,0.00699,-0.01237,-0.02250,-0.02470,-0.00699,0.0*
%
%ADD121ROTATEDRECTD121*%

G04:AMPARAMS|DCode=122|XSize=72.96mil|YSize=59.18mil|CornerRadius=0mil|HoleSize=0mil|Usage=FLASHONLY|Rotation=308.500|XOffset=0mil|YOffset=0mil|HoleType=Round|Shape=Rectangle|*
%AMROTATEDRECTD122*
4,1,4,-0.04587,0.01013,0.00045,0.04697,0.04587,-0.01013,-0.00045,-0.04697,-0.04587,0.01013,0.0*
%
%ADD122ROTATEDRECTD122*%

%ADD123R,0.03051X0.01378*%
%ADD124R,0.01378X0.03051*%
%ADD125R,0.08268X0.04685*%
%ADD126R,0.01378X0.03347*%
%ADD127R,0.04737X0.13398*%
%ADD128R,0.02769X0.04737*%
%ADD129R,0.20485X0.10642*%
%ADD130O,0.03740X0.01575*%
%ADD131O,0.01575X0.03740*%
%ADD132R,0.10630X0.10630*%
%ADD133O,0.05709X0.01575*%
%ADD134R,0.04737X0.04737*%
%ADD135O,0.05906X0.02165*%
G36*
X391732Y422244D02*
X392520Y424803D01*
X394882D01*
X395669Y422244D01*
X404724D01*
Y424409D01*
X406496Y426181D01*
Y427165D01*
X405512Y428150D01*
X381890D01*
X380906Y427165D01*
Y426181D01*
X382677Y424409D01*
Y422244D01*
X391732Y422244D01*
D02*
G37*
D10*
X323529Y422418D02*
G03*
X324677Y426931I-1482J2779D01*
G01*
X345122Y539341D02*
G03*
X345538Y544077I-1851J2549D01*
G01*
X341703Y632690D02*
G03*
X345538Y544077I51998J-42139D01*
G01*
X345122Y539341D02*
G03*
X324677Y426931I48579J-66900D01*
G01*
X323529Y422418D02*
G03*
X356918Y393705I11116J-20843D01*
G01*
X441863Y544077D02*
G03*
X442279Y539341I2266J-2187D01*
G01*
X441863Y544077D02*
G03*
X445699Y632690I-48163J46474D01*
G01*
X462720Y426934D02*
G03*
X463873Y422411I2634J-1737D01*
G01*
X430485Y393705D02*
G03*
X463873Y422418I22273J7870D01*
G01*
X462725Y426931D02*
G03*
X442279Y539341I-69024J45510D01*
G01*
X393701Y389764D02*
G03*
X426423Y395611I0J94488D01*
G01*
X430483Y393705D02*
G03*
X426423Y395611I-2970J-1049D01*
G01*
X405642Y651864D02*
G03*
X393701Y653543I-11941J-41628D01*
G01*
X472540Y712599D02*
G03*
X409650Y654640I-99J-62992D01*
G01*
X405642Y651864D02*
G03*
X409650Y654640I868J3028D01*
G01*
X446490Y637353D02*
G03*
X472540Y712596I-33105J53592D01*
G01*
X446490Y637353D02*
G03*
X445699Y632690I1655J-2680D01*
G01*
X341703D02*
G03*
X340911Y637353I-2447J1983D01*
G01*
X314861Y712596D02*
G03*
X340911Y637353I59154J-21651D01*
G01*
X377751Y654640D02*
G03*
X381759Y651864I3140J252D01*
G01*
X377751Y654640D02*
G03*
X314861Y712599I-62791J-5033D01*
G01*
X393701Y653543D02*
G03*
X381759Y651864I0J-43307D01*
G01*
X360979Y395611D02*
G03*
X356918Y393705I-1091J-2955D01*
G01*
X360979Y395611D02*
G03*
X393701Y389764I32722J88641D01*
G01*
D46*
X403543Y437795D02*
D03*
X407480D02*
D03*
X370472Y579921D02*
D03*
X366535D02*
D03*
X417323Y587402D02*
D03*
X421260D02*
D03*
X369685Y544095D02*
D03*
X373622D02*
D03*
X378740D02*
D03*
X382677D02*
D03*
X378740Y536221D02*
D03*
X382677D02*
D03*
X386815Y510630D02*
D03*
X390752D02*
D03*
X421260Y583071D02*
D03*
X417323D02*
D03*
X421260Y578740D02*
D03*
X417323D02*
D03*
X370472Y571260D02*
D03*
X366535D02*
D03*
X421260Y574409D02*
D03*
X417323D02*
D03*
X366535Y584252D02*
D03*
X370472D02*
D03*
X366535Y575591D02*
D03*
X370472D02*
D03*
X417323Y570079D02*
D03*
X421260D02*
D03*
D47*
X437205Y574016D02*
D03*
Y583465D02*
D03*
X444685D02*
D03*
X342717Y574016D02*
D03*
Y583465D02*
D03*
X350197D02*
D03*
D49*
X319291Y402165D02*
D03*
Y398228D02*
D03*
X337008Y392913D02*
D03*
Y388976D02*
D03*
X323622Y406102D02*
D03*
Y402165D02*
D03*
X431102Y580709D02*
D03*
Y576772D02*
D03*
X336614Y580709D02*
D03*
Y576772D02*
D03*
X455904Y399189D02*
D03*
Y403126D02*
D03*
X462205Y399213D02*
D03*
Y403150D02*
D03*
D52*
X450787Y580551D02*
D03*
Y576929D02*
D03*
X356299Y580551D02*
D03*
Y576929D02*
D03*
D54*
X331496Y394685D02*
D03*
Y387205D02*
D03*
X322047Y390945D02*
D03*
D58*
X342520Y426378D02*
D03*
Y431890D02*
D03*
X344488Y402756D02*
D03*
Y408268D02*
D03*
D67*
X346457Y620472D02*
D03*
X351969D02*
D03*
X333858Y509055D02*
D03*
X339370D02*
D03*
X413583Y434055D02*
D03*
X419095D02*
D03*
X336417Y420276D02*
D03*
X330906D02*
D03*
X432283Y419685D02*
D03*
X437795D02*
D03*
X432283Y404331D02*
D03*
X437795D02*
D03*
X391539Y515354D02*
D03*
X386028D02*
D03*
D78*
X404724Y426496D02*
D03*
X401575D02*
D03*
X403150Y423740D02*
D03*
X395276Y426496D02*
D03*
X396850Y423740D02*
D03*
X398425Y426496D02*
D03*
X392126D02*
D03*
X390551Y423740D02*
D03*
X388976Y426496D02*
D03*
X387402Y423740D02*
D03*
X385827Y426496D02*
D03*
X384252Y423740D02*
D03*
X382677Y426496D02*
D03*
D79*
X400000Y423740D02*
D03*
D80*
X410512Y403346D02*
D03*
X376890Y421969D02*
D03*
Y403346D02*
D03*
X410512Y421969D02*
D03*
D81*
X354331Y496063D02*
D03*
X393701Y444882D02*
D03*
X433071Y496063D02*
D03*
D82*
X326638Y452203D02*
D03*
X331630Y441498D02*
D03*
D83*
X395276Y515354D02*
D03*
X442913Y558268D02*
D03*
X443701Y530315D02*
D03*
X400000Y445669D02*
D03*
X330315Y498819D02*
D03*
X316929Y393307D02*
D03*
X448819Y404331D02*
D03*
X451279Y408563D02*
D03*
X337008Y384646D02*
D03*
X329183Y407480D02*
D03*
X322441Y412992D02*
D03*
X325984Y418898D02*
D03*
X444095Y404331D02*
D03*
X425984Y505905D02*
D03*
X419488Y503937D02*
D03*
X340551Y494882D02*
D03*
X355118Y503937D02*
D03*
X424803Y404724D02*
D03*
X413779Y562992D02*
D03*
X364567Y567323D02*
D03*
X363386Y561417D02*
D03*
X366929Y564173D02*
D03*
X359449Y551181D02*
D03*
X358661Y540945D02*
D03*
X355906Y532874D02*
D03*
X370472Y567323D02*
D03*
X351575Y515748D02*
D03*
X340551Y498425D02*
D03*
X346457Y555512D02*
D03*
X363779Y505905D02*
D03*
X367323Y506299D02*
D03*
X437402Y558268D02*
D03*
X412992Y598425D02*
D03*
X367323Y607480D02*
D03*
X378740Y603642D02*
D03*
X350394Y616535D02*
D03*
X341339Y618504D02*
D03*
X344882Y606299D02*
D03*
X341339D02*
D03*
X345276Y648819D02*
D03*
X342126D02*
D03*
X343701Y669685D02*
D03*
X340551D02*
D03*
X427559Y600000D02*
D03*
X421752Y609842D02*
D03*
X427165Y648032D02*
D03*
X414961Y603150D02*
D03*
X383071Y474409D02*
D03*
X431102Y470079D02*
D03*
Y482283D02*
D03*
X386221Y596063D02*
D03*
X385433Y611319D02*
D03*
X382677Y608760D02*
D03*
X378740Y599902D02*
D03*
X377165Y587795D02*
D03*
X430315Y518898D02*
D03*
X440945Y503937D02*
D03*
X412598Y514173D02*
D03*
X419488Y526772D02*
D03*
X446457Y466929D02*
D03*
X406693Y530315D02*
D03*
X443504Y464567D02*
D03*
X452362Y462205D02*
D03*
X405118Y500394D02*
D03*
X449409Y459842D02*
D03*
X430315Y528346D02*
D03*
X323228Y467323D02*
D03*
X330315D02*
D03*
X326772D02*
D03*
X344488Y437402D02*
D03*
X336417Y426772D02*
D03*
X369291Y460630D02*
D03*
X361024Y427165D02*
D03*
X371063Y428740D02*
D03*
Y425591D02*
D03*
Y422441D02*
D03*
X349606Y411024D02*
D03*
X367717Y472047D02*
D03*
X379937Y471242D02*
D03*
X379921Y461024D02*
D03*
X387402Y476772D02*
D03*
X413386Y437795D02*
D03*
X426181Y428150D02*
D03*
Y441732D02*
D03*
X422244D02*
D03*
X418307D02*
D03*
X426575Y435236D02*
D03*
X465747Y398055D02*
D03*
X452362Y398031D02*
D03*
X466142Y403150D02*
D03*
X455905Y412992D02*
D03*
X419685Y535039D02*
D03*
X401575Y471299D02*
D03*
X368504Y509449D02*
D03*
X361024Y538583D02*
D03*
X350000Y532874D02*
D03*
X365354Y544488D02*
D03*
X354331Y521457D02*
D03*
X350000D02*
D03*
X418898Y538976D02*
D03*
X409449Y535827D02*
D03*
X364173Y501968D02*
D03*
X384252Y491339D02*
D03*
X367717Y497244D02*
D03*
X364961Y494488D02*
D03*
X362205Y497244D02*
D03*
X378346Y502362D02*
D03*
X409055Y522441D02*
D03*
X407874Y519291D02*
D03*
X409055Y565748D02*
D03*
X388976Y500000D02*
D03*
X386221Y502362D02*
D03*
X343701Y525591D02*
D03*
X344882Y520079D02*
D03*
X338268Y522441D02*
D03*
X330315Y509055D02*
D03*
X334646Y522441D02*
D03*
X437402Y554331D02*
D03*
X436890Y546850D02*
D03*
X437008Y550138D02*
D03*
X426772D02*
D03*
X421654Y565354D02*
D03*
X390748Y528925D02*
D03*
X386614Y557480D02*
D03*
X390158D02*
D03*
X403937Y540945D02*
D03*
X397638Y557087D02*
D03*
X393701Y520472D02*
D03*
X383465Y526378D02*
D03*
X412598Y592520D02*
D03*
X398425Y570472D02*
D03*
Y577559D02*
D03*
X419488Y531102D02*
D03*
X416536Y515158D02*
D03*
X424213Y570079D02*
D03*
X424213Y574409D02*
D03*
X416308Y464525D02*
D03*
X419261Y471415D02*
D03*
X398622Y464724D02*
D03*
X368110Y532874D02*
D03*
X363740Y592913D02*
D03*
X373268Y592677D02*
D03*
X398819Y605905D02*
D03*
X399213Y600787D02*
D03*
X451969Y571654D02*
D03*
Y585827D02*
D03*
X435945Y577855D02*
D03*
X341457D02*
D03*
X357480Y585827D02*
D03*
Y571654D02*
D03*
X408268Y559842D02*
D03*
X393701Y557480D02*
D03*
X363382Y575634D02*
D03*
X363583Y579921D02*
D03*
Y584252D02*
D03*
X405315Y590650D02*
D03*
X388937Y592520D02*
D03*
X398465Y592520D02*
D03*
X424213Y578740D02*
D03*
X392717Y436221D02*
D03*
X377559Y522047D02*
D03*
X379134Y524803D02*
D03*
X379528Y513386D02*
D03*
X368110D02*
D03*
X379724Y516732D02*
D03*
X465354Y457087D02*
D03*
X459449Y446457D02*
D03*
X427953Y409449D02*
D03*
X441339Y414173D02*
D03*
X441732Y419685D02*
D03*
X427953Y414173D02*
D03*
X422244Y428150D02*
D03*
X418307D02*
D03*
X367126Y438976D02*
D03*
X354331Y429134D02*
D03*
X341535Y397638D02*
D03*
X344488D02*
D03*
X348425Y428150D02*
D03*
X332677Y407480D02*
D03*
X363189Y418307D02*
D03*
X382874Y436221D02*
D03*
X395276Y438976D02*
D03*
X438976Y390158D02*
D03*
X443701Y390158D02*
D03*
X448425D02*
D03*
D116*
X393701Y401181D02*
D03*
Y413386D02*
D03*
D117*
X382874Y431417D02*
D03*
X384842D02*
D03*
X386811D02*
D03*
X388779D02*
D03*
X390748D02*
D03*
X392717D02*
D03*
X394685D02*
D03*
X396654D02*
D03*
X398622D02*
D03*
X400591D02*
D03*
X402559D02*
D03*
X404528D02*
D03*
D118*
X347658Y643327D02*
D03*
X351555Y647224D02*
D03*
D119*
X334646Y518898D02*
D03*
X338268D02*
D03*
X370315Y588583D02*
D03*
X366693D02*
D03*
X370315Y592913D02*
D03*
X366693D02*
D03*
X391890Y602756D02*
D03*
X395512D02*
D03*
X391890Y598425D02*
D03*
X395512D02*
D03*
X404961Y559842D02*
D03*
X401338D02*
D03*
X334803Y514173D02*
D03*
X338425D02*
D03*
X397795Y548425D02*
D03*
X401417D02*
D03*
X389528D02*
D03*
X393150D02*
D03*
X360394Y438976D02*
D03*
X364016D02*
D03*
X433228Y409449D02*
D03*
X436850D02*
D03*
X433228Y414173D02*
D03*
X436850D02*
D03*
X390595Y520472D02*
D03*
X386972D02*
D03*
X391377Y525150D02*
D03*
X387755D02*
D03*
X395512Y592520D02*
D03*
X391890D02*
D03*
D120*
X410532Y540138D02*
D03*
Y545138D02*
D03*
X410532Y550138D02*
D03*
X410532Y555138D02*
D03*
X431988Y540138D02*
D03*
Y545138D02*
D03*
Y550138D02*
D03*
X431988Y555138D02*
D03*
D121*
X445501Y506881D02*
D03*
X444275Y508421D02*
D03*
X443050Y509962D02*
D03*
X441824Y511503D02*
D03*
X440599Y513043D02*
D03*
X434472Y520746D02*
D03*
X435697Y519205D02*
D03*
X436923Y517665D02*
D03*
X438148Y516124D02*
D03*
X439374Y514584D02*
D03*
D122*
X434750Y532412D02*
D03*
X456931Y504528D02*
D03*
D123*
X388730Y538386D02*
D03*
Y536417D02*
D03*
Y540354D02*
D03*
Y542323D02*
D03*
X398671D02*
D03*
Y540354D02*
D03*
Y538386D02*
D03*
Y536417D02*
D03*
D124*
X391732Y543356D02*
D03*
X393701D02*
D03*
X395669D02*
D03*
Y535384D02*
D03*
X393701D02*
D03*
X391732D02*
D03*
D125*
X363189Y427165D02*
D03*
D126*
X359252Y431890D02*
D03*
X361221D02*
D03*
X363189D02*
D03*
X365158D02*
D03*
X367126D02*
D03*
X359252Y422441D02*
D03*
X361221Y422441D02*
D03*
X363189D02*
D03*
X365158Y422441D02*
D03*
X367126D02*
D03*
D127*
X358858Y410433D02*
D03*
X367520D02*
D03*
D128*
X328937Y402165D02*
D03*
X336417D02*
D03*
Y412795D02*
D03*
X332677Y412795D02*
D03*
X328937Y412795D02*
D03*
D129*
X326772Y460630D02*
D03*
Y480315D02*
D03*
D130*
X374902Y611319D02*
D03*
Y608760D02*
D03*
Y606201D02*
D03*
Y603642D02*
D03*
X359744D02*
D03*
Y606201D02*
D03*
Y608760D02*
D03*
Y611319D02*
D03*
D131*
X371161Y599902D02*
D03*
X368602D02*
D03*
X366043D02*
D03*
X363484D02*
D03*
Y615059D02*
D03*
X366043D02*
D03*
X368602D02*
D03*
X371161D02*
D03*
D132*
X367323Y607480D02*
D03*
D133*
X421752Y607087D02*
D03*
Y605118D02*
D03*
Y603150D02*
D03*
Y601181D02*
D03*
Y599213D02*
D03*
X404232Y607087D02*
D03*
Y605118D02*
D03*
Y603150D02*
D03*
Y601181D02*
D03*
Y599213D02*
D03*
D134*
X443898Y574016D02*
D03*
X349410D02*
D03*
D135*
X382087Y569783D02*
D03*
Y572342D02*
D03*
Y574902D02*
D03*
Y577461D02*
D03*
Y580020D02*
D03*
Y582579D02*
D03*
Y585138D02*
D03*
Y587697D02*
D03*
X405315Y569783D02*
D03*
Y572342D02*
D03*
Y574902D02*
D03*
Y577461D02*
D03*
Y580020D02*
D03*
Y582579D02*
D03*
Y585138D02*
D03*
Y587697D02*
D03*
M02*
