G04*
G04 #@! TF.GenerationSoftware,Altium Limited,Altium Designer,24.2.2 (26)*
G04*
G04 Layer_Physical_Order=3*
G04 Layer_Color=6736896*
%FSLAX25Y25*%
%MOIN*%
G70*
G04*
G04 #@! TF.SameCoordinates,A7374CB3-C572-496A-BD66-24450F52A8E5*
G04*
G04*
G04 #@! TF.FilePolarity,Positive*
G04*
G01*
G75*
%ADD10C,0.00394*%
%ADD86C,0.00591*%
%ADD90C,0.02559*%
%ADD91C,0.02362*%
%ADD92O,0.03937X0.06299*%
%ADD93C,0.05906*%
%ADD94C,0.03543*%
G36*
X344882Y669858D02*
X344931Y669736D01*
X344985Y669629D01*
X345045Y669535D01*
X345112Y669455D01*
X345185Y669388D01*
X345264Y669336D01*
X345349Y669298D01*
X345441Y669273D01*
X345539Y669262D01*
X345233Y668695D01*
X345132Y668705D01*
X345026Y668709D01*
X344803Y668702D01*
X344685Y668690D01*
X344436Y668651D01*
X344171Y668590D01*
X344032Y668551D01*
X344841Y669994D01*
X344882Y669858D01*
D02*
G37*
G36*
X342108Y650158D02*
X342148Y650146D01*
X342204Y650122D01*
X342364Y650041D01*
X342724Y649837D01*
X341120Y649437D01*
X341470Y649976D01*
X342086Y650129D01*
X342077Y650150D01*
X342085Y650160D01*
X342108Y650158D01*
D02*
G37*
G36*
X342271Y617759D02*
X342221Y617652D01*
X342186Y617549D01*
X342165Y617451D01*
X342160Y617357D01*
X342170Y617269D01*
X342195Y617184D01*
X342234Y617105D01*
X342289Y617029D01*
X342358Y616959D01*
X341722Y616763D01*
X341649Y616843D01*
X341490Y616995D01*
X341405Y617068D01*
X341223Y617205D01*
X341126Y617269D01*
X340919Y617391D01*
X340810Y617448D01*
X342336Y617871D01*
X342271Y617759D01*
D02*
G37*
G36*
X344542Y607996D02*
X344696Y607844D01*
X344782Y607770D01*
X344976Y607623D01*
X345082Y607551D01*
X345440Y607340D01*
X343852Y606878D01*
X343917Y607004D01*
X343968Y607124D01*
X344004Y607238D01*
X344026Y607347D01*
X344033Y607449D01*
X344026Y607547D01*
X344005Y607638D01*
X343969Y607724D01*
X343918Y607804D01*
X343853Y607878D01*
X344474Y608073D01*
X344542Y607996D01*
D02*
G37*
G36*
X471136Y710593D02*
X471373Y709946D01*
X472536Y705937D01*
X473423Y701859D01*
X474028Y697729D01*
X474350Y693567D01*
X474387Y689394D01*
X474138Y685227D01*
X473605Y681087D01*
X472790Y676994D01*
X471698Y672965D01*
X470332Y669021D01*
X468700Y665179D01*
X466809Y661458D01*
X464669Y657875D01*
X462288Y654447D01*
X459678Y651189D01*
X456852Y648117D01*
X453823Y645246D01*
X450604Y642589D01*
X447211Y640157D01*
X445436Y639060D01*
X445396Y639024D01*
X445347Y639002D01*
X445072Y638812D01*
X444960Y638696D01*
X444825Y638610D01*
X444344Y638147D01*
X444222Y637972D01*
X444070Y637821D01*
X443697Y637268D01*
X443615Y637071D01*
X443498Y636892D01*
X443251Y636272D01*
X443211Y636062D01*
X443135Y635863D01*
X443023Y635205D01*
X443029Y634991D01*
X442997Y634780D01*
X443027Y634113D01*
X443078Y633906D01*
X443090Y633693D01*
X443260Y633047D01*
X443353Y632855D01*
X443410Y632650D01*
X443712Y632054D01*
X443811Y631928D01*
X443878Y631782D01*
X444075Y631511D01*
X444114Y631474D01*
X444140Y631427D01*
X445620Y629599D01*
X448310Y625740D01*
X450713Y621696D01*
X452818Y617488D01*
X454612Y613139D01*
X456087Y608672D01*
X457235Y604110D01*
X458049Y599476D01*
X458527Y594796D01*
X458616Y591734D01*
X458126Y591377D01*
X452893D01*
X452714Y591342D01*
X452531Y591344D01*
X452334Y591266D01*
X452125Y591224D01*
X451973Y591123D01*
X451969Y591121D01*
X451964Y591123D01*
X451813Y591224D01*
X451604Y591266D01*
X451406Y591344D01*
X451223Y591342D01*
X451044Y591377D01*
X423666D01*
X420015Y595028D01*
X420056Y597480D01*
X420339Y614306D01*
X411456Y623190D01*
Y628346D01*
X411303Y629114D01*
X410868Y629766D01*
X410217Y630201D01*
X409650Y630313D01*
X409650Y650817D01*
X409722Y650867D01*
X409876Y651026D01*
X410056Y651158D01*
X410527Y651669D01*
X410642Y651859D01*
X410789Y652027D01*
X411136Y652629D01*
X411207Y652840D01*
X411313Y653035D01*
X411520Y653700D01*
X411537Y653866D01*
X411592Y654024D01*
X411639Y654369D01*
X411635Y654426D01*
X411651Y654480D01*
X411833Y656749D01*
X412534Y661247D01*
X413568Y665681D01*
X414930Y670025D01*
X416613Y674256D01*
X418606Y678349D01*
X420898Y682283D01*
X423478Y686034D01*
X426329Y689583D01*
X429438Y692910D01*
X432786Y695995D01*
X436354Y698822D01*
X440124Y701376D01*
X444073Y703641D01*
X448180Y705605D01*
X452423Y707258D01*
X456776Y708590D01*
X461217Y709594D01*
X465720Y710264D01*
X470259Y710596D01*
X471136Y710593D01*
D02*
G37*
G36*
X409449Y602756D02*
X410923Y601281D01*
X410890Y600783D01*
X410746Y600671D01*
X410241Y600014D01*
X409924Y599247D01*
X409815Y598425D01*
X409924Y597603D01*
X410241Y596837D01*
X410746Y596179D01*
X411149Y595870D01*
X411073Y595297D01*
X411010Y595271D01*
X410352Y594766D01*
X409847Y594108D01*
X409530Y593342D01*
X409422Y592520D01*
X409530Y591698D01*
X409847Y590931D01*
X410352Y590273D01*
X411010Y589769D01*
X411776Y589451D01*
X412598Y589343D01*
X413421Y589451D01*
X414187Y589769D01*
X414845Y590273D01*
X415350Y590931D01*
X415667Y591698D01*
X415775Y592520D01*
X415667Y593342D01*
X415350Y594108D01*
X414845Y594766D01*
X414442Y595075D01*
X414517Y595648D01*
X414580Y595674D01*
X415239Y596179D01*
X415349Y596324D01*
X415848Y596356D01*
X422835Y589370D01*
X451044D01*
X451146Y588896D01*
X450380Y588578D01*
X449722Y588073D01*
X449218Y587415D01*
X448900Y586649D01*
X448792Y585827D01*
X448900Y585005D01*
X449218Y584239D01*
X449722Y583581D01*
X450380Y583076D01*
X451146Y582759D01*
X451969Y582650D01*
X452791Y582759D01*
X453557Y583076D01*
X454215Y583581D01*
X454720Y584239D01*
X455037Y585005D01*
X455145Y585827D01*
X455037Y586649D01*
X454720Y587415D01*
X454215Y588073D01*
X453557Y588578D01*
X452791Y588896D01*
X452893Y589370D01*
X458271D01*
X458617Y589009D01*
X458461Y585394D01*
X457917Y580721D01*
X457038Y576099D01*
X455826Y571554D01*
X454288Y567108D01*
X452433Y562785D01*
X450269Y558607D01*
X447809Y554597D01*
X445065Y550776D01*
X442053Y547163D01*
X440419Y545470D01*
X440390Y545425D01*
X440347Y545391D01*
X440126Y545137D01*
X440046Y544996D01*
X439936Y544878D01*
X439582Y544306D01*
X439507Y544105D01*
X439397Y543920D01*
X439173Y543287D01*
X439143Y543074D01*
X439074Y542870D01*
X438990Y542203D01*
X439005Y541989D01*
X438981Y541775D01*
X439040Y541106D01*
X439101Y540899D01*
X439123Y540685D01*
X439323Y540043D01*
X439425Y539855D01*
X439493Y539650D01*
X439824Y539066D01*
X439964Y538903D01*
X440073Y538718D01*
X440521Y538216D01*
X440650Y538119D01*
X440754Y537994D01*
X441015Y537782D01*
X441063Y537757D01*
X441100Y537717D01*
X443176Y536210D01*
X447127Y532938D01*
X450862Y529422D01*
X454366Y525676D01*
X457625Y521714D01*
X460627Y517554D01*
X463357Y513211D01*
X465807Y508704D01*
X467965Y504050D01*
X469823Y499269D01*
X471373Y494379D01*
X472610Y489400D01*
X473528Y484353D01*
X473787Y482136D01*
X473309Y482020D01*
X472874Y482671D01*
X472223Y483106D01*
X471455Y483259D01*
X453738D01*
X452970Y483106D01*
X452319Y482671D01*
X451884Y482020D01*
X451731Y481252D01*
Y465298D01*
X451540Y465273D01*
X450774Y464956D01*
X450116Y464451D01*
X449611Y463793D01*
X449294Y463027D01*
X449291Y463004D01*
X448587Y462911D01*
X447821Y462594D01*
X447163Y462089D01*
X446658Y461431D01*
X446341Y460665D01*
X446233Y459842D01*
X446341Y459020D01*
X446658Y458254D01*
X447163Y457596D01*
X447821Y457091D01*
X448587Y456774D01*
X449409Y456666D01*
X450232Y456774D01*
X450998Y457091D01*
X451656Y457596D01*
X452161Y458254D01*
X452478Y459020D01*
X452481Y459044D01*
X453184Y459136D01*
X453951Y459453D01*
X454608Y459958D01*
X455113Y460616D01*
X455431Y461382D01*
X455450Y461528D01*
X471455D01*
X472223Y461681D01*
X472874Y462116D01*
X473309Y462767D01*
X473785Y462647D01*
X473252Y458809D01*
X472226Y453783D01*
X470882Y448832D01*
X469226Y443977D01*
X467265Y439236D01*
X465007Y434630D01*
X462462Y430179D01*
X461047Y428042D01*
X461026Y427991D01*
X460989Y427950D01*
X460823Y427667D01*
X460771Y427518D01*
X460686Y427385D01*
X460446Y426775D01*
X460409Y426569D01*
X460335Y426373D01*
X460226Y425727D01*
X460232Y425518D01*
X460200Y425311D01*
X460227Y424656D01*
X460277Y424452D01*
X460288Y424243D01*
X460450Y423608D01*
X460540Y423419D01*
X460594Y423217D01*
X460884Y422629D01*
X461011Y422462D01*
X461106Y422276D01*
X461511Y421760D01*
X461670Y421624D01*
X461801Y421461D01*
X462304Y421040D01*
X462459Y420956D01*
X462592Y420839D01*
X462874Y420678D01*
X462904Y420667D01*
X462929Y420647D01*
X464087Y420029D01*
X466238Y418522D01*
X468190Y416766D01*
X469915Y414786D01*
X471388Y412612D01*
X472587Y410276D01*
X473494Y407812D01*
X474097Y405256D01*
X474386Y402646D01*
X474356Y400020D01*
X474009Y397417D01*
X473350Y394875D01*
X472387Y392432D01*
X471136Y390123D01*
X469615Y387983D01*
X467846Y386042D01*
X465855Y384330D01*
X463671Y382872D01*
X461327Y381688D01*
X458857Y380797D01*
X456297Y380211D01*
X453686Y379940D01*
X451060Y379987D01*
X448460Y380351D01*
X445922Y381027D01*
X443485Y382005D01*
X441185Y383272D01*
X439054Y384807D01*
X437126Y386589D01*
X435427Y388591D01*
X433983Y390784D01*
X432814Y393137D01*
X432375Y394375D01*
X432350Y394418D01*
X432340Y394466D01*
X432222Y394755D01*
X432139Y394880D01*
X432089Y395022D01*
X431770Y395557D01*
X431636Y395705D01*
X431534Y395876D01*
X431116Y396338D01*
X430956Y396457D01*
X430822Y396604D01*
X430321Y396975D01*
X430140Y397060D01*
X429980Y397178D01*
X429416Y397443D01*
X429222Y397491D01*
X429042Y397575D01*
X428437Y397724D01*
X428237Y397732D01*
X428044Y397779D01*
X427421Y397806D01*
X427224Y397776D01*
X427025Y397784D01*
X426409Y397687D01*
X426268Y397635D01*
X426119Y397619D01*
X425822Y397526D01*
X425777Y397502D01*
X425728Y397494D01*
X423810Y396786D01*
X419915Y395541D01*
X415970Y394469D01*
X411980Y393572D01*
X407955Y392853D01*
X403902Y392313D01*
X399830Y391951D01*
X395745Y391771D01*
X393701Y391771D01*
X391656D01*
X387572Y391951D01*
X383499Y392313D01*
X379446Y392853D01*
X375421Y393572D01*
X371432Y394469D01*
X367486Y395540D01*
X363592Y396785D01*
X361674Y397494D01*
X361624Y397501D01*
X361580Y397526D01*
X361282Y397619D01*
X361133Y397635D01*
X360992Y397687D01*
X360377Y397783D01*
X360178Y397775D01*
X359980Y397806D01*
X359358Y397779D01*
X359164Y397732D01*
X358965Y397723D01*
X358360Y397575D01*
X358179Y397490D01*
X357986Y397443D01*
X357422Y397178D01*
X357261Y397060D01*
X357081Y396974D01*
X356580Y396604D01*
X356446Y396457D01*
X356286Y396338D01*
X355868Y395876D01*
X355765Y395705D01*
X355632Y395557D01*
X355313Y395022D01*
X355262Y394880D01*
X355180Y394755D01*
X355061Y394466D01*
X355052Y394417D01*
X355026Y394374D01*
X354589Y393136D01*
X353420Y390784D01*
X351976Y388591D01*
X350277Y386589D01*
X348348Y384807D01*
X346218Y383272D01*
X343918Y382005D01*
X341481Y381027D01*
X338943Y380351D01*
X336343Y379987D01*
X333717Y379940D01*
X331105Y380211D01*
X328546Y380797D01*
X326076Y381688D01*
X323731Y382872D01*
X321548Y384330D01*
X319557Y386042D01*
X317788Y387983D01*
X316588Y389671D01*
X316869Y390138D01*
X316929Y390130D01*
X317751Y390239D01*
X318517Y390556D01*
X319176Y391061D01*
X319680Y391719D01*
X319998Y392485D01*
X320106Y393307D01*
X319998Y394129D01*
X319680Y394896D01*
X319176Y395553D01*
X318517Y396058D01*
X317751Y396376D01*
X316929Y396484D01*
X316107Y396376D01*
X315341Y396058D01*
X314683Y395553D01*
X314467Y395272D01*
X313921Y395383D01*
X313394Y397417D01*
X313047Y400020D01*
X313017Y402646D01*
X313306Y405256D01*
X313908Y407812D01*
X314816Y410276D01*
X316015Y412612D01*
X317488Y414786D01*
X319213Y416766D01*
X321165Y418522D01*
X322364Y419362D01*
X322831Y419079D01*
X322808Y418898D01*
X322916Y418075D01*
X323233Y417309D01*
X323738Y416651D01*
X324396Y416147D01*
X325162Y415829D01*
X325984Y415721D01*
X326806Y415829D01*
X327573Y416147D01*
X328231Y416651D01*
X328735Y417309D01*
X329053Y418075D01*
X329161Y418898D01*
X329053Y419720D01*
X328735Y420486D01*
X328231Y421144D01*
X327573Y421649D01*
X326806Y421966D01*
X326657Y421986D01*
X326453Y422352D01*
X326427Y422520D01*
X326515Y422636D01*
X326804Y423223D01*
X326858Y423425D01*
X326948Y423614D01*
X327109Y424247D01*
X327120Y424456D01*
X327169Y424660D01*
X327196Y425313D01*
X327164Y425520D01*
X327170Y425729D01*
X327061Y426373D01*
X326987Y426569D01*
X326950Y426775D01*
X326710Y427383D01*
X326625Y427516D01*
X326573Y427664D01*
X326408Y427947D01*
X326372Y427986D01*
X326352Y428035D01*
X324940Y430177D01*
X322394Y434630D01*
X320136Y439236D01*
X318176Y443977D01*
X316520Y448832D01*
X315176Y453783D01*
X314149Y458809D01*
X313444Y463890D01*
X313063Y469006D01*
X313008Y474135D01*
X313278Y479258D01*
X313874Y484353D01*
X314792Y489400D01*
X316028Y494379D01*
X317579Y499269D01*
X318735Y502244D01*
X319224Y502347D01*
X320234Y501337D01*
X320885Y500902D01*
X321654Y500749D01*
X327252D01*
X327498Y500249D01*
X327246Y499641D01*
X327138Y498819D01*
X327246Y497997D01*
X327564Y497230D01*
X328069Y496573D01*
X328727Y496068D01*
X329493Y495750D01*
X330315Y495642D01*
X331137Y495750D01*
X331903Y496068D01*
X332561Y496573D01*
X333066Y497230D01*
X333383Y497997D01*
X333492Y498819D01*
X333383Y499641D01*
X333132Y500249D01*
X333378Y500749D01*
X347441D01*
X348209Y500902D01*
X348860Y501337D01*
X349295Y501988D01*
X349448Y502756D01*
Y517973D01*
X349824Y518303D01*
X350000Y518280D01*
X350822Y518388D01*
X351588Y518706D01*
X352165Y519148D01*
X352742Y518706D01*
X353508Y518388D01*
X354331Y518280D01*
X355153Y518388D01*
X355919Y518706D01*
X356577Y519210D01*
X357082Y519868D01*
X357399Y520635D01*
X357507Y521457D01*
X357399Y522279D01*
X357082Y523045D01*
X356577Y523703D01*
X355919Y524208D01*
X355153Y524525D01*
X354331Y524634D01*
X353508Y524525D01*
X352742Y524208D01*
X352165Y523765D01*
X351588Y524208D01*
X350822Y524525D01*
X350000Y524634D01*
X349178Y524525D01*
X349096Y524491D01*
X348860Y524844D01*
X346209Y527495D01*
X345947Y527837D01*
X345289Y528342D01*
X344523Y528659D01*
X343701Y528767D01*
X342879Y528659D01*
X342217Y528385D01*
X336198D01*
X335999Y528844D01*
X336540Y529422D01*
X340275Y532938D01*
X344226Y536210D01*
X346302Y537717D01*
X346339Y537757D01*
X346387Y537782D01*
X346648Y537994D01*
X346751Y538119D01*
X346881Y538216D01*
X347328Y538718D01*
X347437Y538903D01*
X347578Y539066D01*
X347909Y539650D01*
X347976Y539855D01*
X348079Y540043D01*
X348278Y540685D01*
X348301Y540899D01*
X348361Y541106D01*
X348420Y541775D01*
X348397Y541989D01*
X348412Y542203D01*
X348327Y542870D01*
X348259Y543074D01*
X348228Y543287D01*
X348004Y543920D01*
X347894Y544105D01*
X347819Y544306D01*
X347466Y544878D01*
X347355Y544996D01*
X347275Y545137D01*
X347055Y545391D01*
X347012Y545425D01*
X346982Y545470D01*
X345349Y547163D01*
X342336Y550776D01*
X339592Y554597D01*
X337132Y558607D01*
X334969Y562785D01*
X333114Y567108D01*
X331576Y571554D01*
X330364Y576099D01*
X329484Y580721D01*
X328941Y585394D01*
X328768Y589403D01*
X329113Y589764D01*
X358661Y589764D01*
X373228Y604331D01*
Y628346D01*
X409449D01*
Y602756D01*
D02*
G37*
%LPC*%
G36*
X427580Y651181D02*
X426751D01*
X425950Y650967D01*
X425232Y650552D01*
X424645Y649965D01*
X424230Y649247D01*
X424016Y648446D01*
Y647617D01*
X424230Y646816D01*
X424645Y646098D01*
X425232Y645511D01*
X425950Y645096D01*
X426751Y644882D01*
X427580D01*
X428381Y645096D01*
X429099Y645511D01*
X429686Y646098D01*
X430100Y646816D01*
X430315Y647617D01*
Y648446D01*
X430100Y649247D01*
X429686Y649965D01*
X429099Y650552D01*
X428381Y650967D01*
X427580Y651181D01*
D02*
G37*
G36*
X427974Y603150D02*
X427144D01*
X426343Y602935D01*
X425625Y602520D01*
X425039Y601934D01*
X424624Y601216D01*
X424409Y600415D01*
Y599585D01*
X424624Y598784D01*
X425039Y598066D01*
X425625Y597480D01*
X426343Y597065D01*
X427144Y596850D01*
X427974D01*
X428775Y597065D01*
X429493Y597480D01*
X430079Y598066D01*
X430494Y598784D01*
X430709Y599585D01*
Y600415D01*
X430494Y601216D01*
X430079Y601934D01*
X429493Y602520D01*
X428775Y602935D01*
X427974Y603150D01*
D02*
G37*
G36*
X385433Y614496D02*
X384611Y614387D01*
X383845Y614070D01*
X383187Y613565D01*
X382682Y612907D01*
X382365Y612141D01*
X382332Y611891D01*
X381855Y611828D01*
X381089Y611511D01*
X380431Y611006D01*
X379926Y610348D01*
X379609Y609582D01*
X379500Y608760D01*
X379609Y607938D01*
X379926Y607171D01*
X380431Y606514D01*
X381089Y606009D01*
X381855Y605691D01*
X382677Y605583D01*
X383499Y605691D01*
X384266Y606009D01*
X384924Y606514D01*
X385428Y607171D01*
X385746Y607938D01*
X385779Y608188D01*
X386255Y608250D01*
X387021Y608568D01*
X387679Y609073D01*
X388184Y609730D01*
X388502Y610497D01*
X388610Y611319D01*
X388502Y612141D01*
X388184Y612907D01*
X387679Y613565D01*
X387021Y614070D01*
X386255Y614387D01*
X385433Y614496D01*
D02*
G37*
G36*
X398819Y609082D02*
X397997Y608974D01*
X397231Y608657D01*
X396573Y608152D01*
X396068Y607494D01*
X395750Y606728D01*
X395642Y605905D01*
X395750Y605083D01*
X396068Y604317D01*
X396573Y603659D01*
X397231Y603154D01*
X397997Y602837D01*
X398819Y602729D01*
X399641Y602837D01*
X400407Y603154D01*
X401065Y603659D01*
X401570Y604317D01*
X401887Y605083D01*
X401996Y605905D01*
X401887Y606728D01*
X401570Y607494D01*
X401065Y608152D01*
X400407Y608657D01*
X399641Y608974D01*
X398819Y609082D01*
D02*
G37*
G36*
X378740Y603078D02*
X377918Y602970D01*
X377152Y602653D01*
X376494Y602148D01*
X375989Y601490D01*
X375672Y600724D01*
X375563Y599902D01*
X375672Y599079D01*
X375989Y598313D01*
X376494Y597655D01*
X377152Y597150D01*
X377918Y596833D01*
X378740Y596725D01*
X379562Y596833D01*
X380328Y597150D01*
X380986Y597655D01*
X381491Y598313D01*
X381809Y599079D01*
X381917Y599902D01*
X381809Y600724D01*
X381491Y601490D01*
X380986Y602148D01*
X380328Y602653D01*
X379562Y602970D01*
X378740Y603078D01*
D02*
G37*
G36*
X386221Y599240D02*
X385398Y599131D01*
X384632Y598814D01*
X383974Y598309D01*
X383469Y597651D01*
X383152Y596885D01*
X383044Y596063D01*
X383152Y595241D01*
X383469Y594475D01*
X383974Y593817D01*
X384632Y593312D01*
X385398Y592994D01*
X386221Y592886D01*
X387043Y592994D01*
X387809Y593312D01*
X388467Y593817D01*
X388972Y594475D01*
X389289Y595241D01*
X389397Y596063D01*
X389289Y596885D01*
X388972Y597651D01*
X388467Y598309D01*
X387809Y598814D01*
X387043Y599131D01*
X386221Y599240D01*
D02*
G37*
G36*
X373268Y595854D02*
X372446Y595746D01*
X371679Y595428D01*
X371021Y594923D01*
X370517Y594266D01*
X370199Y593499D01*
X370091Y592677D01*
X370199Y591855D01*
X370517Y591089D01*
X371021Y590431D01*
X371679Y589926D01*
X372446Y589609D01*
X373268Y589500D01*
X374090Y589609D01*
X374856Y589926D01*
X375514Y590431D01*
X376019Y591089D01*
X376336Y591855D01*
X376445Y592677D01*
X376336Y593499D01*
X376019Y594266D01*
X375514Y594923D01*
X374856Y595428D01*
X374090Y595746D01*
X373268Y595854D01*
D02*
G37*
G36*
X398465Y595696D02*
X397642Y595588D01*
X396876Y595271D01*
X396218Y594766D01*
X395713Y594108D01*
X395396Y593342D01*
X395288Y592520D01*
X395396Y591698D01*
X395713Y590931D01*
X396218Y590273D01*
X396876Y589769D01*
X397642Y589451D01*
X398465Y589343D01*
X399287Y589451D01*
X400053Y589769D01*
X400711Y590273D01*
X401216Y590931D01*
X401533Y591698D01*
X401641Y592520D01*
X401533Y593342D01*
X401216Y594108D01*
X400711Y594766D01*
X400053Y595271D01*
X399287Y595588D01*
X398465Y595696D01*
D02*
G37*
G36*
X405315Y593826D02*
X404493Y593718D01*
X403727Y593401D01*
X403069Y592896D01*
X402564Y592238D01*
X402247Y591472D01*
X402138Y590650D01*
X402247Y589827D01*
X402564Y589061D01*
X403069Y588403D01*
X403727Y587898D01*
X404493Y587581D01*
X405315Y587473D01*
X406137Y587581D01*
X406903Y587898D01*
X407561Y588403D01*
X408066Y589061D01*
X408384Y589827D01*
X408492Y590650D01*
X408384Y591472D01*
X408066Y592238D01*
X407561Y592896D01*
X406903Y593401D01*
X406137Y593718D01*
X405315Y593826D01*
D02*
G37*
G36*
X435945Y581032D02*
X435123Y580924D01*
X434357Y580607D01*
X433699Y580102D01*
X433194Y579444D01*
X432876Y578678D01*
X432768Y577855D01*
X432876Y577033D01*
X433194Y576267D01*
X433699Y575609D01*
X434357Y575104D01*
X435123Y574787D01*
X435945Y574679D01*
X436767Y574787D01*
X437533Y575104D01*
X438191Y575609D01*
X438696Y576267D01*
X439013Y577033D01*
X439122Y577855D01*
X439013Y578678D01*
X438696Y579444D01*
X438191Y580102D01*
X437533Y580607D01*
X436767Y580924D01*
X435945Y581032D01*
D02*
G37*
G36*
X341457D02*
X340634Y580924D01*
X339868Y580607D01*
X339210Y580102D01*
X338705Y579444D01*
X338388Y578678D01*
X338280Y577855D01*
X338388Y577033D01*
X338705Y576267D01*
X339210Y575609D01*
X339868Y575104D01*
X340634Y574787D01*
X341457Y574679D01*
X342279Y574787D01*
X343045Y575104D01*
X343703Y575609D01*
X344208Y576267D01*
X344525Y577033D01*
X344634Y577855D01*
X344525Y578678D01*
X344208Y579444D01*
X343703Y580102D01*
X343045Y580607D01*
X342279Y580924D01*
X341457Y581032D01*
D02*
G37*
G36*
X398425Y580736D02*
X397603Y580628D01*
X396837Y580310D01*
X396179Y579805D01*
X395674Y579147D01*
X395357Y578381D01*
X395248Y577559D01*
X395357Y576737D01*
X395674Y575971D01*
X396179Y575313D01*
X396837Y574808D01*
X397603Y574490D01*
X398425Y574382D01*
X399247Y574490D01*
X400014Y574808D01*
X400671Y575313D01*
X401176Y575971D01*
X401494Y576737D01*
X401602Y577559D01*
X401494Y578381D01*
X401176Y579147D01*
X400671Y579805D01*
X400014Y580310D01*
X399247Y580628D01*
X398425Y580736D01*
D02*
G37*
G36*
X357480Y589004D02*
X356658Y588896D01*
X355892Y588578D01*
X355234Y588073D01*
X354729Y587415D01*
X354412Y586649D01*
X354304Y585827D01*
X354412Y585005D01*
X354729Y584239D01*
X355234Y583581D01*
X355892Y583076D01*
X356658Y582759D01*
X357480Y582650D01*
X358302Y582759D01*
X359069Y583076D01*
X359727Y583581D01*
X359951Y583874D01*
X360474Y583734D01*
X360514Y583430D01*
X360831Y582664D01*
X361274Y582087D01*
X360831Y581510D01*
X360514Y580744D01*
X360406Y579921D01*
X360514Y579099D01*
X360831Y578333D01*
X361163Y577901D01*
X361136Y577880D01*
X360631Y577222D01*
X360314Y576456D01*
X360205Y575634D01*
X360314Y574812D01*
X360631Y574045D01*
X361136Y573387D01*
X361794Y572883D01*
X362560Y572565D01*
X363382Y572457D01*
X364204Y572565D01*
X364970Y572883D01*
X365628Y573387D01*
X366133Y574045D01*
X366451Y574812D01*
X366559Y575634D01*
X366451Y576456D01*
X366133Y577222D01*
X365802Y577654D01*
X365829Y577675D01*
X366334Y578333D01*
X366651Y579099D01*
X366759Y579921D01*
X366651Y580744D01*
X366334Y581510D01*
X365891Y582087D01*
X366334Y582664D01*
X366651Y583430D01*
X366759Y584252D01*
X366651Y585074D01*
X366334Y585840D01*
X365829Y586498D01*
X365171Y587003D01*
X364405Y587321D01*
X363583Y587429D01*
X362760Y587321D01*
X361994Y587003D01*
X361336Y586498D01*
X361112Y586205D01*
X360589Y586345D01*
X360549Y586649D01*
X360231Y587415D01*
X359727Y588073D01*
X359069Y588578D01*
X358302Y588896D01*
X357480Y589004D01*
D02*
G37*
G36*
X370472Y570500D02*
X369650Y570391D01*
X368884Y570074D01*
X368226Y569569D01*
X367811Y569028D01*
X367624Y568984D01*
X367415D01*
X367229Y569028D01*
X366813Y569569D01*
X366155Y570074D01*
X365389Y570391D01*
X364567Y570500D01*
X363745Y570391D01*
X362979Y570074D01*
X362321Y569569D01*
X361816Y568911D01*
X361498Y568145D01*
X361390Y567323D01*
X361498Y566501D01*
X361816Y565734D01*
X362321Y565076D01*
X362468Y564964D01*
X362479Y564905D01*
X362372Y564407D01*
X361797Y564169D01*
X361139Y563664D01*
X360635Y563006D01*
X360317Y562240D01*
X360209Y561417D01*
X360317Y560595D01*
X360635Y559829D01*
X361139Y559171D01*
X361797Y558666D01*
X362564Y558349D01*
X363386Y558241D01*
X364208Y558349D01*
X364974Y558666D01*
X365632Y559171D01*
X366137Y559829D01*
X366454Y560595D01*
X366514Y561051D01*
X366929Y560996D01*
X367751Y561105D01*
X368517Y561422D01*
X369176Y561927D01*
X369680Y562585D01*
X369998Y563351D01*
X370054Y563781D01*
X370472Y564146D01*
X370581Y564160D01*
X371295Y564254D01*
X372061Y564572D01*
X372719Y565076D01*
X373224Y565734D01*
X373541Y566501D01*
X373649Y567323D01*
X373541Y568145D01*
X373224Y568911D01*
X372719Y569569D01*
X372061Y570074D01*
X371295Y570391D01*
X370472Y570500D01*
D02*
G37*
G36*
X398425Y573649D02*
X397603Y573541D01*
X396837Y573224D01*
X396179Y572719D01*
X395674Y572061D01*
X395357Y571295D01*
X395248Y570472D01*
X395357Y569650D01*
X395674Y568884D01*
X396179Y568226D01*
X396837Y567721D01*
X397603Y567404D01*
X398425Y567296D01*
X399247Y567404D01*
X400014Y567721D01*
X400671Y568226D01*
X401176Y568884D01*
X401494Y569650D01*
X401602Y570472D01*
X401494Y571295D01*
X401176Y572061D01*
X400671Y572719D01*
X400014Y573224D01*
X399247Y573541D01*
X398425Y573649D01*
D02*
G37*
G36*
X424213Y581917D02*
X423390Y581809D01*
X422624Y581491D01*
X421966Y580986D01*
X421461Y580329D01*
X421144Y579562D01*
X421036Y578740D01*
X421144Y577918D01*
X421461Y577152D01*
X421904Y576575D01*
X421461Y575998D01*
X421144Y575232D01*
X421036Y574409D01*
X421144Y573587D01*
X421461Y572821D01*
X421904Y572244D01*
X421461Y571667D01*
X421144Y570901D01*
X421036Y570079D01*
X421144Y569256D01*
X421298Y568884D01*
X421048Y568451D01*
X420831Y568423D01*
X420065Y568106D01*
X419407Y567601D01*
X418902Y566943D01*
X418585Y566177D01*
X418477Y565354D01*
X418585Y564532D01*
X418902Y563766D01*
X419407Y563108D01*
X420065Y562603D01*
X420831Y562286D01*
X421654Y562178D01*
X422476Y562286D01*
X423242Y562603D01*
X423900Y563108D01*
X424405Y563766D01*
X424722Y564532D01*
X424830Y565354D01*
X424722Y566177D01*
X424568Y566549D01*
X424818Y566982D01*
X425035Y567010D01*
X425801Y567328D01*
X426459Y567832D01*
X426964Y568490D01*
X427281Y569256D01*
X427389Y570079D01*
X427281Y570901D01*
X426964Y571667D01*
X426521Y572244D01*
X426964Y572821D01*
X427281Y573587D01*
X427389Y574409D01*
X427281Y575232D01*
X426964Y575998D01*
X426521Y576575D01*
X426964Y577152D01*
X427281Y577918D01*
X427389Y578740D01*
X427281Y579562D01*
X426964Y580329D01*
X426459Y580986D01*
X425801Y581491D01*
X425035Y581809D01*
X424213Y581917D01*
D02*
G37*
G36*
X442913Y561445D02*
X442091Y561336D01*
X441325Y561019D01*
X440667Y560514D01*
X440473Y560261D01*
X439842D01*
X439648Y560514D01*
X438990Y561019D01*
X438224Y561336D01*
X437402Y561445D01*
X436579Y561336D01*
X435813Y561019D01*
X435155Y560514D01*
X434650Y559856D01*
X434333Y559090D01*
X434225Y558268D01*
X434333Y557445D01*
X434650Y556679D01*
X434942Y556299D01*
X434650Y555919D01*
X434333Y555153D01*
X434225Y554331D01*
X434333Y553509D01*
X434650Y552742D01*
X434865Y552463D01*
X434761Y552384D01*
X434257Y551726D01*
X433939Y550960D01*
X433831Y550138D01*
X433939Y549316D01*
X434257Y548549D01*
X434761Y547892D01*
X435420Y547387D01*
X436186Y547069D01*
X437008Y546961D01*
X437830Y547069D01*
X438596Y547387D01*
X439254Y547892D01*
X439759Y548549D01*
X440076Y549316D01*
X440185Y550138D01*
X440076Y550960D01*
X439759Y551726D01*
X439545Y552005D01*
X439648Y552084D01*
X440153Y552742D01*
X440470Y553509D01*
X440578Y554331D01*
X440470Y555153D01*
X440197Y555813D01*
X440633Y556065D01*
X440667Y556021D01*
X441325Y555517D01*
X442091Y555199D01*
X442913Y555091D01*
X443736Y555199D01*
X444502Y555517D01*
X445160Y556021D01*
X445665Y556679D01*
X445982Y557445D01*
X446090Y558268D01*
X445982Y559090D01*
X445665Y559856D01*
X445160Y560514D01*
X444502Y561019D01*
X443736Y561336D01*
X442913Y561445D01*
D02*
G37*
G36*
X409055Y568925D02*
X408233Y568817D01*
X407467Y568499D01*
X406809Y567994D01*
X406304Y567336D01*
X405987Y566570D01*
X405878Y565748D01*
X405987Y564926D01*
X406304Y564160D01*
X406809Y563502D01*
X407467Y562997D01*
X408233Y562679D01*
X409055Y562571D01*
X409877Y562679D01*
X410225Y562823D01*
X410658Y562573D01*
X410711Y562170D01*
X411028Y561404D01*
X411533Y560746D01*
X412191Y560241D01*
X412957Y559924D01*
X413779Y559815D01*
X414602Y559924D01*
X415368Y560241D01*
X416026Y560746D01*
X416531Y561404D01*
X416848Y562170D01*
X416956Y562992D01*
X416848Y563814D01*
X416531Y564580D01*
X416026Y565239D01*
X415368Y565743D01*
X414602Y566061D01*
X413779Y566169D01*
X412957Y566061D01*
X412610Y565917D01*
X412177Y566167D01*
X412124Y566570D01*
X411806Y567336D01*
X411301Y567994D01*
X410643Y568499D01*
X409877Y568817D01*
X409055Y568925D01*
D02*
G37*
G36*
X393701Y560657D02*
X392879Y560549D01*
X392112Y560231D01*
X391455Y559727D01*
X390950Y559069D01*
X390632Y558302D01*
X390524Y557480D01*
X390632Y556658D01*
X390950Y555892D01*
X391455Y555234D01*
X392112Y554729D01*
X392879Y554412D01*
X393701Y554304D01*
X394523Y554412D01*
X395289Y554729D01*
X395947Y555234D01*
X396452Y555892D01*
X396769Y556658D01*
X396878Y557480D01*
X396769Y558302D01*
X396452Y559069D01*
X395947Y559727D01*
X395289Y560231D01*
X394523Y560549D01*
X393701Y560657D01*
D02*
G37*
G36*
X386614D02*
X385792Y560549D01*
X385026Y560231D01*
X384368Y559727D01*
X383863Y559069D01*
X383546Y558302D01*
X383437Y557480D01*
X383546Y556658D01*
X383863Y555892D01*
X384368Y555234D01*
X385026Y554729D01*
X385792Y554412D01*
X386614Y554304D01*
X387436Y554412D01*
X388203Y554729D01*
X388861Y555234D01*
X389365Y555892D01*
X389683Y556658D01*
X389791Y557480D01*
X389683Y558302D01*
X389365Y559069D01*
X388861Y559727D01*
X388203Y560231D01*
X387436Y560549D01*
X386614Y560657D01*
D02*
G37*
G36*
X346457Y558689D02*
X345635Y558580D01*
X344868Y558263D01*
X344210Y557758D01*
X343706Y557100D01*
X343388Y556334D01*
X343280Y555512D01*
X343388Y554690D01*
X343706Y553923D01*
X344210Y553265D01*
X344868Y552761D01*
X345635Y552443D01*
X346457Y552335D01*
X347279Y552443D01*
X348045Y552761D01*
X348703Y553265D01*
X349208Y553923D01*
X349525Y554690D01*
X349634Y555512D01*
X349525Y556334D01*
X349208Y557100D01*
X348703Y557758D01*
X348045Y558263D01*
X347279Y558580D01*
X346457Y558689D01*
D02*
G37*
G36*
X359449Y554358D02*
X358627Y554250D01*
X357860Y553932D01*
X357203Y553427D01*
X356698Y552770D01*
X356380Y552003D01*
X356272Y551181D01*
X356380Y550359D01*
X356698Y549593D01*
X357203Y548935D01*
X357860Y548430D01*
X358627Y548113D01*
X359449Y548004D01*
X360271Y548113D01*
X361037Y548430D01*
X361695Y548935D01*
X362200Y549593D01*
X362517Y550359D01*
X362626Y551181D01*
X362517Y552003D01*
X362200Y552770D01*
X361695Y553427D01*
X361037Y553932D01*
X360271Y554250D01*
X359449Y554358D01*
D02*
G37*
G36*
X426772Y553315D02*
X425949Y553206D01*
X425183Y552889D01*
X424525Y552384D01*
X424020Y551726D01*
X423703Y550960D01*
X423595Y550138D01*
X423703Y549316D01*
X424020Y548549D01*
X424525Y547892D01*
X425183Y547387D01*
X425949Y547069D01*
X426772Y546961D01*
X427594Y547069D01*
X428360Y547387D01*
X429018Y547892D01*
X429523Y548549D01*
X429840Y549316D01*
X429948Y550138D01*
X429840Y550960D01*
X429523Y551726D01*
X429018Y552384D01*
X428360Y552889D01*
X427594Y553206D01*
X426772Y553315D01*
D02*
G37*
G36*
X365354Y547665D02*
X364532Y547557D01*
X363766Y547239D01*
X363108Y546735D01*
X362603Y546077D01*
X362286Y545310D01*
X362178Y544488D01*
X362286Y543666D01*
X362603Y542900D01*
X363108Y542242D01*
X363766Y541737D01*
X364532Y541420D01*
X365354Y541311D01*
X366177Y541420D01*
X366943Y541737D01*
X367601Y542242D01*
X368106Y542900D01*
X368423Y543666D01*
X368531Y544488D01*
X368423Y545310D01*
X368106Y546077D01*
X367601Y546735D01*
X366943Y547239D01*
X366177Y547557D01*
X365354Y547665D01*
D02*
G37*
G36*
X403937Y544122D02*
X403115Y544013D01*
X402349Y543696D01*
X401691Y543191D01*
X401186Y542533D01*
X400869Y541767D01*
X400760Y540945D01*
X400869Y540123D01*
X401186Y539357D01*
X401691Y538699D01*
X402349Y538194D01*
X403115Y537876D01*
X403937Y537768D01*
X404759Y537876D01*
X405525Y538194D01*
X406183Y538699D01*
X406688Y539357D01*
X407006Y540123D01*
X407114Y540945D01*
X407006Y541767D01*
X406688Y542533D01*
X406183Y543191D01*
X405525Y543696D01*
X404759Y544013D01*
X403937Y544122D01*
D02*
G37*
G36*
X358661D02*
X357839Y544013D01*
X357073Y543696D01*
X356415Y543191D01*
X355910Y542533D01*
X355593Y541767D01*
X355485Y540945D01*
X355593Y540123D01*
X355910Y539357D01*
X356415Y538699D01*
X357073Y538194D01*
X357839Y537876D01*
X357942Y537863D01*
X357955Y537760D01*
X358272Y536994D01*
X358777Y536336D01*
X359435Y535831D01*
X360201Y535514D01*
X361024Y535406D01*
X361846Y535514D01*
X362612Y535831D01*
X363270Y536336D01*
X363775Y536994D01*
X364092Y537760D01*
X364200Y538583D01*
X364092Y539405D01*
X363775Y540171D01*
X363270Y540829D01*
X362612Y541334D01*
X361846Y541651D01*
X361743Y541665D01*
X361730Y541767D01*
X361413Y542533D01*
X360908Y543191D01*
X360250Y543696D01*
X359484Y544013D01*
X358661Y544122D01*
D02*
G37*
G36*
X355906Y536051D02*
X355083Y535943D01*
X354317Y535625D01*
X353659Y535120D01*
X353244Y534579D01*
X353057Y534535D01*
X352849D01*
X352661Y534579D01*
X352246Y535120D01*
X351588Y535625D01*
X350822Y535943D01*
X350000Y536051D01*
X349178Y535943D01*
X348412Y535625D01*
X347754Y535120D01*
X347249Y534462D01*
X346932Y533696D01*
X346823Y532874D01*
X346932Y532052D01*
X347249Y531286D01*
X347754Y530628D01*
X348412Y530123D01*
X349178Y529806D01*
X350000Y529697D01*
X350822Y529806D01*
X351588Y530123D01*
X352246Y530628D01*
X352661Y531169D01*
X352849Y531213D01*
X353057D01*
X353244Y531169D01*
X353659Y530628D01*
X354317Y530123D01*
X355083Y529806D01*
X355906Y529697D01*
X356728Y529806D01*
X357494Y530123D01*
X358152Y530628D01*
X358657Y531286D01*
X358974Y532052D01*
X359082Y532874D01*
X358974Y533696D01*
X358657Y534462D01*
X358152Y535120D01*
X357494Y535625D01*
X356728Y535943D01*
X355906Y536051D01*
D02*
G37*
G36*
X368110D02*
X367288Y535943D01*
X366522Y535625D01*
X365864Y535120D01*
X365359Y534462D01*
X365042Y533696D01*
X364933Y532874D01*
X365042Y532052D01*
X365359Y531286D01*
X365864Y530628D01*
X366522Y530123D01*
X367288Y529806D01*
X368110Y529697D01*
X368932Y529806D01*
X369699Y530123D01*
X370356Y530628D01*
X370861Y531286D01*
X371179Y532052D01*
X371287Y532874D01*
X371179Y533696D01*
X370861Y534462D01*
X370356Y535120D01*
X369699Y535625D01*
X368932Y535943D01*
X368110Y536051D01*
D02*
G37*
G36*
X383465Y529555D02*
X382642Y529447D01*
X381876Y529129D01*
X381218Y528624D01*
X380713Y527966D01*
X380569Y527618D01*
X379956Y527872D01*
X379134Y527980D01*
X378312Y527872D01*
X377545Y527554D01*
X376887Y527049D01*
X376383Y526392D01*
X376065Y525625D01*
X375957Y524803D01*
X375959Y524789D01*
X375313Y524294D01*
X374808Y523636D01*
X374490Y522869D01*
X374382Y522047D01*
X374490Y521225D01*
X374808Y520459D01*
X375313Y519801D01*
X375971Y519296D01*
X376737Y518979D01*
X376914Y518955D01*
X377106Y518493D01*
X376973Y518321D01*
X376656Y517555D01*
X376548Y516732D01*
X376656Y515910D01*
X376950Y515200D01*
X376776Y514974D01*
X376459Y514208D01*
X376351Y513386D01*
X376459Y512564D01*
X376776Y511797D01*
X377281Y511139D01*
X377939Y510635D01*
X378705Y510317D01*
X379528Y510209D01*
X380350Y510317D01*
X381116Y510635D01*
X381774Y511139D01*
X382279Y511797D01*
X382596Y512564D01*
X382704Y513386D01*
X382596Y514208D01*
X382302Y514918D01*
X382476Y515144D01*
X382793Y515910D01*
X382901Y516732D01*
X382793Y517555D01*
X382476Y518321D01*
X381971Y518979D01*
X381313Y519483D01*
X380547Y519801D01*
X380369Y519824D01*
X380178Y520286D01*
X380310Y520459D01*
X380628Y521225D01*
X380736Y522047D01*
X380734Y522061D01*
X381380Y522557D01*
X381885Y523215D01*
X382029Y523563D01*
X382642Y523309D01*
X383465Y523201D01*
X384287Y523309D01*
X385053Y523627D01*
X385711Y524132D01*
X386216Y524790D01*
X386533Y525556D01*
X386641Y526378D01*
X386533Y527200D01*
X386216Y527966D01*
X385711Y528624D01*
X385053Y529129D01*
X384287Y529447D01*
X383465Y529555D01*
D02*
G37*
G36*
X443701Y533492D02*
X442879Y533384D01*
X442112Y533066D01*
X441455Y532561D01*
X440950Y531903D01*
X440632Y531137D01*
X440524Y530315D01*
X440632Y529493D01*
X440950Y528727D01*
X441455Y528069D01*
X442112Y527564D01*
X442879Y527246D01*
X443701Y527138D01*
X444523Y527246D01*
X445289Y527564D01*
X445947Y528069D01*
X446452Y528727D01*
X446769Y529493D01*
X446878Y530315D01*
X446769Y531137D01*
X446452Y531903D01*
X445947Y532561D01*
X445289Y533066D01*
X444523Y533384D01*
X443701Y533492D01*
D02*
G37*
G36*
X409449Y539004D02*
X408627Y538895D01*
X407860Y538578D01*
X407202Y538073D01*
X406698Y537415D01*
X406380Y536649D01*
X406272Y535827D01*
X406380Y535005D01*
X406698Y534238D01*
X406905Y533968D01*
X406754Y533630D01*
X406645Y533486D01*
X405871Y533384D01*
X405104Y533066D01*
X404447Y532561D01*
X403942Y531903D01*
X403624Y531137D01*
X403516Y530315D01*
X403624Y529493D01*
X403942Y528727D01*
X404447Y528069D01*
X405104Y527564D01*
X405871Y527246D01*
X406693Y527138D01*
X407515Y527246D01*
X408281Y527564D01*
X408939Y528069D01*
X409444Y528727D01*
X409761Y529493D01*
X409870Y530315D01*
X409761Y531137D01*
X409444Y531903D01*
X409237Y532174D01*
X409387Y532512D01*
X409497Y532656D01*
X410271Y532758D01*
X411037Y533076D01*
X411695Y533580D01*
X412200Y534238D01*
X412517Y535005D01*
X412626Y535827D01*
X412517Y536649D01*
X412200Y537415D01*
X411695Y538073D01*
X411037Y538578D01*
X410271Y538895D01*
X409449Y539004D01*
D02*
G37*
G36*
X390748Y532101D02*
X389926Y531993D01*
X389160Y531676D01*
X388502Y531171D01*
X387997Y530513D01*
X387680Y529747D01*
X387571Y528925D01*
X387680Y528102D01*
X387997Y527336D01*
X388502Y526678D01*
X389160Y526173D01*
X389926Y525856D01*
X390748Y525748D01*
X391570Y525856D01*
X392336Y526173D01*
X392994Y526678D01*
X393499Y527336D01*
X393817Y528102D01*
X393925Y528925D01*
X393817Y529747D01*
X393499Y530513D01*
X392994Y531171D01*
X392336Y531676D01*
X391570Y531993D01*
X390748Y532101D01*
D02*
G37*
G36*
X430315Y531523D02*
X429493Y531415D01*
X428727Y531098D01*
X428069Y530593D01*
X427564Y529935D01*
X427246Y529169D01*
X427138Y528346D01*
X427246Y527524D01*
X427564Y526758D01*
X428069Y526100D01*
X428727Y525595D01*
X429493Y525278D01*
X430315Y525170D01*
X431137Y525278D01*
X431903Y525595D01*
X432561Y526100D01*
X433066Y526758D01*
X433384Y527524D01*
X433492Y528346D01*
X433384Y529169D01*
X433066Y529935D01*
X432561Y530593D01*
X431903Y531098D01*
X431137Y531415D01*
X430315Y531523D01*
D02*
G37*
G36*
X418898Y542153D02*
X418075Y542045D01*
X417309Y541727D01*
X416651Y541223D01*
X416147Y540565D01*
X415829Y539799D01*
X415721Y538976D01*
X415829Y538154D01*
X416147Y537388D01*
X416651Y536730D01*
X416898Y536541D01*
X416616Y535862D01*
X416508Y535039D01*
X416616Y534217D01*
X416934Y533451D01*
X417127Y533199D01*
X416737Y532691D01*
X416420Y531925D01*
X416311Y531102D01*
X416420Y530280D01*
X416737Y529514D01*
X417180Y528937D01*
X416737Y528360D01*
X416420Y527594D01*
X416311Y526772D01*
X416420Y525949D01*
X416737Y525183D01*
X417242Y524525D01*
X417900Y524020D01*
X418666Y523703D01*
X419488Y523595D01*
X420310Y523703D01*
X421077Y524020D01*
X421735Y524525D01*
X422239Y525183D01*
X422557Y525949D01*
X422665Y526772D01*
X422557Y527594D01*
X422239Y528360D01*
X421797Y528937D01*
X422239Y529514D01*
X422557Y530280D01*
X422665Y531102D01*
X422557Y531925D01*
X422239Y532691D01*
X422046Y532943D01*
X422436Y533451D01*
X422754Y534217D01*
X422862Y535039D01*
X422754Y535862D01*
X422436Y536628D01*
X421931Y537286D01*
X421685Y537475D01*
X421966Y538154D01*
X422074Y538976D01*
X421966Y539799D01*
X421649Y540565D01*
X421144Y541223D01*
X420486Y541727D01*
X419720Y542045D01*
X418898Y542153D01*
D02*
G37*
G36*
X416536Y518334D02*
X415713Y518226D01*
X414947Y517909D01*
X414289Y517404D01*
X413985Y517008D01*
X413421Y517242D01*
X412598Y517350D01*
X411776Y517242D01*
X411010Y516924D01*
X410352Y516420D01*
X409847Y515762D01*
X409530Y514995D01*
X409422Y514173D01*
X409530Y513351D01*
X409847Y512585D01*
X410352Y511927D01*
X411010Y511422D01*
X411776Y511105D01*
X412598Y510996D01*
X413421Y511105D01*
X414187Y511422D01*
X414845Y511927D01*
X415149Y512323D01*
X415713Y512089D01*
X416536Y511981D01*
X417358Y512089D01*
X418124Y512406D01*
X418782Y512911D01*
X419287Y513569D01*
X419604Y514335D01*
X419712Y515158D01*
X419604Y515980D01*
X419287Y516746D01*
X418782Y517404D01*
X418124Y517909D01*
X417358Y518226D01*
X416536Y518334D01*
D02*
G37*
G36*
X409055Y525618D02*
X408233Y525510D01*
X407467Y525192D01*
X406809Y524687D01*
X406304Y524029D01*
X405987Y523263D01*
X405878Y522441D01*
X405963Y521795D01*
X405628Y521538D01*
X405123Y520880D01*
X404806Y520114D01*
X404697Y519291D01*
X404806Y518469D01*
X405123Y517703D01*
X405628Y517045D01*
X406286Y516540D01*
X407052Y516223D01*
X407874Y516115D01*
X408696Y516223D01*
X409462Y516540D01*
X410120Y517045D01*
X410625Y517703D01*
X410943Y518469D01*
X411051Y519291D01*
X410966Y519937D01*
X411301Y520195D01*
X411806Y520853D01*
X412124Y521619D01*
X412232Y522441D01*
X412124Y523263D01*
X411806Y524029D01*
X411301Y524687D01*
X410643Y525192D01*
X409877Y525510D01*
X409055Y525618D01*
D02*
G37*
G36*
X430315Y522074D02*
X429493Y521966D01*
X428727Y521649D01*
X428069Y521144D01*
X427564Y520486D01*
X427246Y519720D01*
X427138Y518898D01*
X427246Y518075D01*
X427564Y517309D01*
X428069Y516651D01*
X428727Y516147D01*
X429493Y515829D01*
X430315Y515721D01*
X431137Y515829D01*
X431903Y516147D01*
X432561Y516651D01*
X433066Y517309D01*
X433384Y518075D01*
X433492Y518898D01*
X433384Y519720D01*
X433066Y520486D01*
X432561Y521144D01*
X431903Y521649D01*
X431137Y521966D01*
X430315Y522074D01*
D02*
G37*
G36*
X368504Y512626D02*
X367682Y512517D01*
X366915Y512200D01*
X366258Y511695D01*
X365753Y511037D01*
X365435Y510271D01*
X365327Y509449D01*
X365360Y509201D01*
X364902Y508850D01*
X364602Y508974D01*
X363779Y509082D01*
X362957Y508974D01*
X362191Y508657D01*
X361533Y508152D01*
X361028Y507494D01*
X360711Y506728D01*
X360603Y505905D01*
X360711Y505083D01*
X361028Y504317D01*
X361517Y503681D01*
X361422Y503557D01*
X361105Y502791D01*
X360997Y501968D01*
X361105Y501146D01*
X361259Y500774D01*
X361372Y500353D01*
X361004Y500156D01*
X360616Y499995D01*
X359958Y499490D01*
X359608Y499033D01*
X359526Y499000D01*
X359064Y499004D01*
X359000Y499032D01*
X358262Y499994D01*
X357110Y500878D01*
X357045Y501446D01*
X357364Y501691D01*
X357869Y502349D01*
X358187Y503115D01*
X358295Y503937D01*
X358187Y504759D01*
X357869Y505525D01*
X357364Y506183D01*
X356707Y506688D01*
X355940Y507006D01*
X355118Y507114D01*
X354296Y507006D01*
X353530Y506688D01*
X352872Y506183D01*
X352367Y505525D01*
X352050Y504759D01*
X351941Y503937D01*
X352050Y503115D01*
X352367Y502349D01*
X352715Y501895D01*
X352610Y501356D01*
X352565Y501298D01*
X351551Y500878D01*
X350400Y499994D01*
X349516Y498843D01*
X348961Y497502D01*
X348771Y496063D01*
X348961Y494624D01*
X349516Y493283D01*
X350400Y492132D01*
X351551Y491248D01*
X352892Y490693D01*
X354331Y490504D01*
X355770Y490693D01*
X357110Y491248D01*
X358262Y492132D01*
X359145Y493283D01*
X359682Y494580D01*
X359745Y494638D01*
X360227Y494792D01*
X360616Y494493D01*
X361383Y494176D01*
X361833Y494116D01*
X361892Y493666D01*
X362210Y492900D01*
X362714Y492242D01*
X363372Y491737D01*
X364138Y491420D01*
X364961Y491311D01*
X365783Y491420D01*
X366549Y491737D01*
X367207Y492242D01*
X367712Y492900D01*
X368029Y493666D01*
X368088Y494116D01*
X368539Y494176D01*
X369305Y494493D01*
X369963Y494998D01*
X370468Y495656D01*
X370785Y496422D01*
X370893Y497244D01*
X370785Y498066D01*
X370468Y498833D01*
X369963Y499490D01*
X369305Y499995D01*
X368539Y500313D01*
X367717Y500421D01*
X367469Y500388D01*
X367118Y500846D01*
X367242Y501146D01*
X367350Y501968D01*
X367263Y502628D01*
X367288Y502835D01*
X367629Y503163D01*
X368145Y503231D01*
X368911Y503548D01*
X369569Y504053D01*
X370074Y504711D01*
X370391Y505477D01*
X370500Y506299D01*
X370415Y506945D01*
X370750Y507202D01*
X371255Y507860D01*
X371572Y508627D01*
X371681Y509449D01*
X371572Y510271D01*
X371255Y511037D01*
X370750Y511695D01*
X370092Y512200D01*
X369326Y512517D01*
X368504Y512626D01*
D02*
G37*
G36*
X425984Y509082D02*
X425162Y508974D01*
X424396Y508657D01*
X423738Y508152D01*
X423233Y507494D01*
X422916Y506728D01*
X422808Y505905D01*
X422893Y505253D01*
X422406Y505123D01*
X422239Y505525D01*
X421735Y506183D01*
X421077Y506688D01*
X420310Y507006D01*
X419488Y507114D01*
X418666Y507006D01*
X417900Y506688D01*
X417242Y506183D01*
X416737Y505525D01*
X416420Y504759D01*
X416311Y503937D01*
X416420Y503115D01*
X416737Y502349D01*
X417242Y501691D01*
X417900Y501186D01*
X418666Y500869D01*
X419488Y500760D01*
X420310Y500869D01*
X421077Y501186D01*
X421735Y501691D01*
X422239Y502349D01*
X422557Y503115D01*
X422665Y503937D01*
X422579Y504589D01*
X423066Y504720D01*
X423233Y504317D01*
X423738Y503659D01*
X424396Y503154D01*
X425162Y502837D01*
X425984Y502729D01*
X426806Y502837D01*
X427573Y503154D01*
X428231Y503659D01*
X428735Y504317D01*
X429053Y505083D01*
X429161Y505905D01*
X429053Y506728D01*
X428735Y507494D01*
X428231Y508152D01*
X427573Y508657D01*
X426806Y508974D01*
X425984Y509082D01*
D02*
G37*
G36*
X378346Y505539D02*
X377524Y505431D01*
X376758Y505113D01*
X376100Y504608D01*
X375595Y503951D01*
X375278Y503184D01*
X375170Y502362D01*
X375278Y501540D01*
X375595Y500774D01*
X376100Y500116D01*
X376758Y499611D01*
X377524Y499294D01*
X378346Y499185D01*
X379169Y499294D01*
X379935Y499611D01*
X380593Y500116D01*
X381098Y500774D01*
X381415Y501540D01*
X381523Y502362D01*
X381415Y503184D01*
X381098Y503951D01*
X380593Y504608D01*
X379935Y505113D01*
X379169Y505431D01*
X378346Y505539D01*
D02*
G37*
G36*
X405118Y503571D02*
X404296Y503462D01*
X403530Y503145D01*
X402872Y502640D01*
X402367Y501982D01*
X402050Y501216D01*
X401941Y500394D01*
X402050Y499572D01*
X402367Y498805D01*
X402872Y498147D01*
X403530Y497643D01*
X404296Y497325D01*
X405118Y497217D01*
X405940Y497325D01*
X406706Y497643D01*
X407364Y498147D01*
X407869Y498805D01*
X408187Y499572D01*
X408295Y500394D01*
X408187Y501216D01*
X407869Y501982D01*
X407364Y502640D01*
X406706Y503145D01*
X405940Y503462D01*
X405118Y503571D01*
D02*
G37*
G36*
X386221Y505539D02*
X385398Y505431D01*
X384632Y505113D01*
X383974Y504608D01*
X383469Y503951D01*
X383152Y503184D01*
X383044Y502362D01*
X383152Y501540D01*
X383469Y500774D01*
X383974Y500116D01*
X384632Y499611D01*
X385398Y499294D01*
X385901Y499227D01*
X385908Y499178D01*
X386225Y498412D01*
X386730Y497754D01*
X387388Y497249D01*
X388154Y496932D01*
X388976Y496823D01*
X389799Y496932D01*
X390565Y497249D01*
X391223Y497754D01*
X391728Y498412D01*
X392045Y499178D01*
X392153Y500000D01*
X392045Y500822D01*
X391728Y501588D01*
X391223Y502246D01*
X390565Y502751D01*
X389799Y503068D01*
X389296Y503135D01*
X389289Y503184D01*
X388972Y503951D01*
X388467Y504608D01*
X387809Y505113D01*
X387043Y505431D01*
X386221Y505539D01*
D02*
G37*
G36*
X340551Y498059D02*
X339729Y497950D01*
X338963Y497633D01*
X338305Y497128D01*
X337800Y496470D01*
X337483Y495704D01*
X337374Y494882D01*
X337483Y494060D01*
X337800Y493294D01*
X338305Y492636D01*
X338963Y492131D01*
X339729Y491813D01*
X340551Y491705D01*
X341373Y491813D01*
X342140Y492131D01*
X342797Y492636D01*
X343302Y493294D01*
X343620Y494060D01*
X343728Y494882D01*
X343620Y495704D01*
X343302Y496470D01*
X342797Y497128D01*
X342140Y497633D01*
X341373Y497950D01*
X340551Y498059D01*
D02*
G37*
G36*
X433071Y501622D02*
X431632Y501433D01*
X430291Y500878D01*
X429140Y499994D01*
X428256Y498843D01*
X427701Y497502D01*
X427512Y496063D01*
X427701Y494624D01*
X428256Y493283D01*
X429140Y492132D01*
X430291Y491248D01*
X431632Y490693D01*
X433071Y490504D01*
X434510Y490693D01*
X435851Y491248D01*
X437002Y492132D01*
X437885Y493283D01*
X438441Y494624D01*
X438630Y496063D01*
X438441Y497502D01*
X437885Y498843D01*
X437002Y499994D01*
X435851Y500878D01*
X434510Y501433D01*
X433071Y501622D01*
D02*
G37*
G36*
X384252Y494515D02*
X383430Y494407D01*
X382664Y494090D01*
X382006Y493585D01*
X381501Y492927D01*
X381183Y492161D01*
X381075Y491339D01*
X381183Y490516D01*
X381501Y489750D01*
X382006Y489092D01*
X382664Y488587D01*
X383430Y488270D01*
X384252Y488162D01*
X385074Y488270D01*
X385840Y488587D01*
X386498Y489092D01*
X387003Y489750D01*
X387320Y490516D01*
X387429Y491339D01*
X387320Y492161D01*
X387003Y492927D01*
X386498Y493585D01*
X385840Y494090D01*
X385074Y494407D01*
X384252Y494515D01*
D02*
G37*
G36*
X431102Y485460D02*
X430280Y485352D01*
X429514Y485035D01*
X428856Y484530D01*
X428351Y483872D01*
X428034Y483106D01*
X427926Y482283D01*
X428034Y481461D01*
X428351Y480695D01*
X428856Y480037D01*
X429514Y479532D01*
X430280Y479215D01*
X431102Y479107D01*
X431925Y479215D01*
X432691Y479532D01*
X433349Y480037D01*
X433853Y480695D01*
X434171Y481461D01*
X434279Y482283D01*
X434171Y483106D01*
X433853Y483872D01*
X433349Y484530D01*
X432691Y485035D01*
X431925Y485352D01*
X431102Y485460D01*
D02*
G37*
G36*
X387402Y479948D02*
X386579Y479840D01*
X385813Y479523D01*
X385155Y479018D01*
X384650Y478360D01*
X384419Y477801D01*
X383957Y477517D01*
X383815Y477488D01*
X383071Y477586D01*
X382249Y477478D01*
X381483Y477161D01*
X380824Y476656D01*
X380320Y475998D01*
X380002Y475232D01*
X379894Y474413D01*
X379115Y474310D01*
X378349Y473993D01*
X377691Y473488D01*
X377186Y472830D01*
X376868Y472064D01*
X376760Y471242D01*
X376868Y470420D01*
X377186Y469653D01*
X377691Y468995D01*
X378349Y468491D01*
X379115Y468173D01*
X379937Y468065D01*
X380759Y468173D01*
X381525Y468491D01*
X382183Y468995D01*
X382688Y469653D01*
X383005Y470420D01*
X383113Y471238D01*
X383893Y471341D01*
X384659Y471658D01*
X385317Y472163D01*
X385822Y472821D01*
X386053Y473380D01*
X386579Y473703D01*
X387402Y473595D01*
X388224Y473703D01*
X388990Y474020D01*
X389648Y474525D01*
X390153Y475183D01*
X390470Y475949D01*
X390578Y476772D01*
X390470Y477594D01*
X390153Y478360D01*
X389648Y479018D01*
X388990Y479523D01*
X388224Y479840D01*
X387402Y479948D01*
D02*
G37*
G36*
X419261Y474591D02*
X418439Y474483D01*
X417672Y474166D01*
X417015Y473661D01*
X416510Y473003D01*
X416192Y472237D01*
X416084Y471415D01*
X416192Y470592D01*
X416510Y469826D01*
X417015Y469168D01*
X417672Y468663D01*
X418439Y468346D01*
X419261Y468238D01*
X420083Y468346D01*
X420849Y468663D01*
X421507Y469168D01*
X422012Y469826D01*
X422329Y470592D01*
X422438Y471415D01*
X422329Y472237D01*
X422012Y473003D01*
X421507Y473661D01*
X420849Y474166D01*
X420083Y474483D01*
X419261Y474591D01*
D02*
G37*
G36*
X401575Y474476D02*
X400753Y474368D01*
X399986Y474050D01*
X399328Y473546D01*
X398824Y472888D01*
X398506Y472121D01*
X398398Y471299D01*
X398506Y470477D01*
X398824Y469711D01*
X399328Y469053D01*
X399986Y468548D01*
X400753Y468231D01*
X401575Y468122D01*
X402397Y468231D01*
X403163Y468548D01*
X403821Y469053D01*
X404326Y469711D01*
X404643Y470477D01*
X404752Y471299D01*
X404643Y472121D01*
X404326Y472888D01*
X403821Y473546D01*
X403163Y474050D01*
X402397Y474368D01*
X401575Y474476D01*
D02*
G37*
G36*
X431102Y473255D02*
X430280Y473147D01*
X429514Y472830D01*
X428856Y472325D01*
X428351Y471667D01*
X428034Y470901D01*
X427926Y470079D01*
X428034Y469256D01*
X428351Y468490D01*
X428856Y467832D01*
X429514Y467328D01*
X430280Y467010D01*
X431102Y466902D01*
X431925Y467010D01*
X432691Y467328D01*
X433349Y467832D01*
X433853Y468490D01*
X434171Y469256D01*
X434279Y470079D01*
X434171Y470901D01*
X433853Y471667D01*
X433349Y472325D01*
X432691Y472830D01*
X431925Y473147D01*
X431102Y473255D01*
D02*
G37*
G36*
X446457Y470106D02*
X445635Y469998D01*
X444868Y469680D01*
X444210Y469175D01*
X443706Y468517D01*
X443388Y467751D01*
X443385Y467728D01*
X442682Y467635D01*
X441916Y467318D01*
X441258Y466813D01*
X440753Y466155D01*
X440435Y465389D01*
X440327Y464567D01*
X440435Y463745D01*
X440753Y462979D01*
X441258Y462321D01*
X441916Y461816D01*
X442682Y461498D01*
X443504Y461390D01*
X444326Y461498D01*
X445092Y461816D01*
X445750Y462321D01*
X446255Y462979D01*
X446572Y463745D01*
X446575Y463768D01*
X447279Y463861D01*
X448045Y464178D01*
X448703Y464683D01*
X449208Y465341D01*
X449525Y466107D01*
X449634Y466929D01*
X449525Y467751D01*
X449208Y468517D01*
X448703Y469175D01*
X448045Y469680D01*
X447279Y469998D01*
X446457Y470106D01*
D02*
G37*
G36*
X416308Y467702D02*
X415486Y467593D01*
X414720Y467276D01*
X414062Y466771D01*
X413557Y466113D01*
X413239Y465347D01*
X413131Y464525D01*
X413239Y463703D01*
X413557Y462936D01*
X414062Y462279D01*
X414720Y461774D01*
X415486Y461456D01*
X416308Y461348D01*
X417130Y461456D01*
X417897Y461774D01*
X418554Y462279D01*
X419059Y462936D01*
X419377Y463703D01*
X419485Y464525D01*
X419377Y465347D01*
X419059Y466113D01*
X418554Y466771D01*
X417897Y467276D01*
X417130Y467593D01*
X416308Y467702D01*
D02*
G37*
G36*
X369291Y463807D02*
X368469Y463698D01*
X367703Y463381D01*
X367045Y462876D01*
X366540Y462218D01*
X366223Y461452D01*
X366115Y460630D01*
X366223Y459808D01*
X366540Y459042D01*
X367045Y458384D01*
X367703Y457879D01*
X368469Y457561D01*
X369291Y457453D01*
X370113Y457561D01*
X370880Y457879D01*
X371538Y458384D01*
X372042Y459042D01*
X372360Y459808D01*
X372468Y460630D01*
X372360Y461452D01*
X372042Y462218D01*
X371538Y462876D01*
X370880Y463381D01*
X370113Y463698D01*
X369291Y463807D01*
D02*
G37*
G36*
X326967Y455961D02*
X325983Y455918D01*
X325044Y455622D01*
X324213Y455092D01*
X323548Y454366D01*
X323093Y453493D01*
X322880Y452531D01*
X322923Y451547D01*
X323219Y450608D01*
X323748Y449778D01*
X324474Y449112D01*
X325348Y448658D01*
X326309Y448445D01*
X327293Y448488D01*
X328232Y448784D01*
X329063Y449313D01*
X329728Y450039D01*
X330183Y450912D01*
X330396Y451874D01*
X330353Y452858D01*
X330057Y453797D01*
X329528Y454628D01*
X328802Y455293D01*
X327928Y455748D01*
X326967Y455961D01*
D02*
G37*
G36*
X426181Y444909D02*
X425359Y444801D01*
X424593Y444483D01*
X424213Y444192D01*
X423833Y444483D01*
X423066Y444801D01*
X422244Y444909D01*
X421422Y444801D01*
X420656Y444483D01*
X420276Y444192D01*
X419896Y444483D01*
X419129Y444801D01*
X418307Y444909D01*
X417485Y444801D01*
X416719Y444483D01*
X416061Y443979D01*
X415556Y443321D01*
X415239Y442555D01*
X415130Y441732D01*
X415239Y440910D01*
X415556Y440144D01*
X416061Y439486D01*
X416719Y438981D01*
X417485Y438664D01*
X418307Y438555D01*
X419129Y438664D01*
X419896Y438981D01*
X420276Y439273D01*
X420656Y438981D01*
X421422Y438664D01*
X422244Y438555D01*
X423066Y438664D01*
X423833Y438981D01*
X424213Y439273D01*
X424593Y438981D01*
X425336Y438673D01*
X425363Y438597D01*
X425391Y438155D01*
X424986Y437987D01*
X424329Y437483D01*
X423824Y436825D01*
X423506Y436058D01*
X423398Y435236D01*
X423506Y434414D01*
X423824Y433648D01*
X424329Y432990D01*
X424986Y432485D01*
X425753Y432168D01*
X426575Y432059D01*
X427397Y432168D01*
X428163Y432485D01*
X428821Y432990D01*
X429326Y433648D01*
X429643Y434414D01*
X429752Y435236D01*
X429643Y436058D01*
X429326Y436825D01*
X428821Y437483D01*
X428163Y437987D01*
X427420Y438295D01*
X427393Y438372D01*
X427364Y438813D01*
X427770Y438981D01*
X428427Y439486D01*
X428932Y440144D01*
X429250Y440910D01*
X429358Y441732D01*
X429250Y442555D01*
X428932Y443321D01*
X428427Y443979D01*
X427770Y444483D01*
X427003Y444801D01*
X426181Y444909D01*
D02*
G37*
G36*
X459449Y449634D02*
X458627Y449525D01*
X457860Y449208D01*
X457202Y448703D01*
X456698Y448045D01*
X456380Y447279D01*
X456272Y446457D01*
X456380Y445635D01*
X456698Y444868D01*
X457202Y444210D01*
X457860Y443706D01*
X458627Y443388D01*
X459449Y443280D01*
X460271Y443388D01*
X461037Y443706D01*
X461695Y444210D01*
X462200Y444868D01*
X462517Y445635D01*
X462626Y446457D01*
X462517Y447279D01*
X462200Y448045D01*
X461695Y448703D01*
X461037Y449208D01*
X460271Y449525D01*
X459449Y449634D01*
D02*
G37*
G36*
X331958Y445256D02*
X330975Y445213D01*
X330035Y444917D01*
X329205Y444388D01*
X328539Y443662D01*
X328085Y442788D01*
X327872Y441827D01*
X327915Y440843D01*
X328211Y439904D01*
X328740Y439073D01*
X329466Y438408D01*
X330339Y437953D01*
X331301Y437740D01*
X332285Y437783D01*
X333224Y438079D01*
X334054Y438608D01*
X334720Y439334D01*
X335175Y440208D01*
X335388Y441169D01*
X335345Y442153D01*
X335049Y443092D01*
X334520Y443923D01*
X333793Y444588D01*
X332920Y445043D01*
X331958Y445256D01*
D02*
G37*
G36*
X393701Y450441D02*
X392262Y450252D01*
X390921Y449696D01*
X389770Y448813D01*
X388886Y447662D01*
X388331Y446321D01*
X388141Y444882D01*
X388331Y443443D01*
X388886Y442102D01*
X389770Y440951D01*
X390921Y440067D01*
X391694Y439747D01*
Y439206D01*
X391128Y438972D01*
X390470Y438467D01*
X389965Y437809D01*
X389648Y437043D01*
X389540Y436221D01*
X389648Y435398D01*
X389965Y434632D01*
X390470Y433974D01*
X391128Y433469D01*
X391894Y433152D01*
X392717Y433044D01*
X393539Y433152D01*
X394305Y433469D01*
X394963Y433974D01*
X395468Y434632D01*
X395785Y435398D01*
X395848Y435875D01*
X396098Y435908D01*
X396864Y436225D01*
X397522Y436730D01*
X398027Y437388D01*
X398344Y438154D01*
X398452Y438976D01*
X398344Y439799D01*
X398027Y440565D01*
X397681Y441015D01*
X398515Y442102D01*
X399071Y443443D01*
X399260Y444882D01*
X399071Y446321D01*
X398515Y447662D01*
X397632Y448813D01*
X396480Y449696D01*
X395140Y450252D01*
X393701Y450441D01*
D02*
G37*
G36*
X426181Y431326D02*
X425359Y431218D01*
X424593Y430901D01*
X424213Y430609D01*
X423833Y430901D01*
X423066Y431218D01*
X422244Y431326D01*
X421422Y431218D01*
X420656Y430901D01*
X420276Y430609D01*
X419896Y430901D01*
X419129Y431218D01*
X418307Y431326D01*
X417485Y431218D01*
X416719Y430901D01*
X416061Y430396D01*
X415556Y429738D01*
X415239Y428972D01*
X415130Y428150D01*
X415239Y427327D01*
X415556Y426561D01*
X416061Y425903D01*
X416719Y425398D01*
X417485Y425081D01*
X418307Y424973D01*
X419129Y425081D01*
X419896Y425398D01*
X420276Y425690D01*
X420656Y425398D01*
X421422Y425081D01*
X422244Y424973D01*
X423066Y425081D01*
X423833Y425398D01*
X424213Y425690D01*
X424593Y425398D01*
X425359Y425081D01*
X426181Y424973D01*
X427003Y425081D01*
X427770Y425398D01*
X428427Y425903D01*
X428932Y426561D01*
X429250Y427327D01*
X429358Y428150D01*
X429250Y428972D01*
X428932Y429738D01*
X428427Y430396D01*
X427770Y430901D01*
X427003Y431218D01*
X426181Y431326D01*
D02*
G37*
G36*
X354331Y432311D02*
X353508Y432202D01*
X352742Y431885D01*
X352084Y431380D01*
X351579Y430722D01*
X351394Y430275D01*
X350822Y430200D01*
X350672Y430396D01*
X350014Y430901D01*
X349247Y431218D01*
X348425Y431326D01*
X347603Y431218D01*
X346837Y430901D01*
X346179Y430396D01*
X345674Y429738D01*
X345357Y428972D01*
X345248Y428150D01*
X345357Y427327D01*
X345674Y426561D01*
X346179Y425903D01*
X346837Y425398D01*
X347603Y425081D01*
X348425Y424973D01*
X349247Y425081D01*
X350014Y425398D01*
X350672Y425903D01*
X351176Y426561D01*
X351361Y427008D01*
X351934Y427084D01*
X352084Y426888D01*
X352742Y426383D01*
X353508Y426065D01*
X354331Y425957D01*
X355153Y426065D01*
X355919Y426383D01*
X356577Y426888D01*
X357082Y427545D01*
X357399Y428312D01*
X357507Y429134D01*
X357399Y429956D01*
X357082Y430722D01*
X356577Y431380D01*
X355919Y431885D01*
X355153Y432202D01*
X354331Y432311D01*
D02*
G37*
G36*
X336417Y429948D02*
X335595Y429840D01*
X334829Y429523D01*
X334171Y429018D01*
X333666Y428360D01*
X333349Y427594D01*
X333241Y426772D01*
X333349Y425949D01*
X333666Y425183D01*
X334171Y424525D01*
X334829Y424020D01*
X335595Y423703D01*
X336417Y423595D01*
X337240Y423703D01*
X338006Y424020D01*
X338664Y424525D01*
X339169Y425183D01*
X339486Y425949D01*
X339594Y426772D01*
X339486Y427594D01*
X339169Y428360D01*
X338664Y429018D01*
X338006Y429523D01*
X337240Y429840D01*
X336417Y429948D01*
D02*
G37*
G36*
X371063Y431917D02*
X370241Y431809D01*
X369475Y431491D01*
X368817Y430986D01*
X368312Y430329D01*
X367994Y429562D01*
X367886Y428740D01*
X367994Y427918D01*
X368306Y427165D01*
X367994Y426413D01*
X367886Y425591D01*
X367994Y424768D01*
X368306Y424016D01*
X367994Y423263D01*
X367886Y422441D01*
X367994Y421619D01*
X368312Y420853D01*
X368817Y420195D01*
X369475Y419690D01*
X370241Y419372D01*
X371063Y419264D01*
X371885Y419372D01*
X372579Y419660D01*
X372674Y419680D01*
X373177Y419463D01*
X373451Y418802D01*
X374082Y417979D01*
X374904Y417348D01*
X375862Y416952D01*
X376890Y416816D01*
X377918Y416952D01*
X378875Y417348D01*
X379698Y417979D01*
X380329Y418802D01*
X380725Y419760D01*
X380861Y420787D01*
Y422133D01*
X381361Y422233D01*
X381415Y422102D01*
X381935Y421424D01*
X382614Y420903D01*
X383404Y420576D01*
X384252Y420464D01*
X385100Y420576D01*
X385827Y420877D01*
X386554Y420576D01*
X387402Y420464D01*
X388249Y420576D01*
X388976Y420877D01*
X389703Y420576D01*
X390551Y420464D01*
X391399Y420576D01*
X392189Y420903D01*
X392868Y421424D01*
X393388Y422102D01*
X393451Y422253D01*
X393951D01*
X394013Y422102D01*
X394534Y421424D01*
X395212Y420903D01*
X396003Y420576D01*
X396850Y420464D01*
X397698Y420576D01*
X398488Y420903D01*
X398534Y420938D01*
X399178Y420672D01*
X400000Y420563D01*
X400822Y420672D01*
X401466Y420938D01*
X401512Y420903D01*
X402302Y420576D01*
X403150Y420464D01*
X403998Y420576D01*
X404788Y420903D01*
X405466Y421424D01*
X405987Y422102D01*
X406041Y422233D01*
X406541Y422133D01*
Y420787D01*
X406676Y419760D01*
X407073Y418802D01*
X407704Y417979D01*
X408526Y417348D01*
X409484Y416952D01*
X410512Y416816D01*
X411540Y416952D01*
X412497Y417348D01*
X413320Y417979D01*
X413951Y418802D01*
X414348Y419760D01*
X414483Y420787D01*
Y423150D01*
X414348Y424177D01*
X413951Y425135D01*
X413320Y425957D01*
X412497Y426589D01*
X411540Y426985D01*
X410512Y427121D01*
X409484Y426985D01*
X408526Y426589D01*
X407704Y425957D01*
X407483Y425670D01*
X407379Y425673D01*
X406971Y426185D01*
X407032Y426496D01*
X406857Y427379D01*
X406356Y428128D01*
X405608Y428628D01*
X404724Y428804D01*
X404007Y428661D01*
X403891Y428813D01*
X403213Y429333D01*
X402423Y429661D01*
X401575Y429772D01*
X400727Y429661D01*
X400000Y429359D01*
X399273Y429661D01*
X398425Y429772D01*
X397577Y429661D01*
X396850Y429359D01*
X396124Y429661D01*
X395276Y429772D01*
X394428Y429661D01*
X393701Y429359D01*
X392974Y429661D01*
X392126Y429772D01*
X391278Y429661D01*
X390551Y429359D01*
X389824Y429661D01*
X388976Y429772D01*
X388128Y429661D01*
X387402Y429359D01*
X386675Y429661D01*
X385827Y429772D01*
X384979Y429661D01*
X384189Y429333D01*
X383510Y428813D01*
X383394Y428661D01*
X382677Y428804D01*
X381794Y428628D01*
X381045Y428128D01*
X380545Y427379D01*
X380369Y426496D01*
X380431Y426185D01*
X380023Y425673D01*
X379918Y425670D01*
X379698Y425957D01*
X378875Y426589D01*
X377918Y426985D01*
X376890Y427121D01*
X375862Y426985D01*
X374904Y426589D01*
X374593Y426350D01*
X374065Y426574D01*
X373820Y427165D01*
X374131Y427918D01*
X374240Y428740D01*
X374131Y429562D01*
X373814Y430329D01*
X373309Y430986D01*
X372651Y431491D01*
X371885Y431809D01*
X371063Y431917D01*
D02*
G37*
G36*
X455905Y416169D02*
X455083Y416061D01*
X454317Y415743D01*
X453659Y415239D01*
X453154Y414580D01*
X452837Y413814D01*
X452729Y412992D01*
X452837Y412170D01*
X452988Y411806D01*
X452605Y411423D01*
X452102Y411631D01*
X451279Y411740D01*
X450457Y411631D01*
X449691Y411314D01*
X449033Y410809D01*
X448528Y410151D01*
X448211Y409385D01*
X448103Y408563D01*
X448186Y407929D01*
X447997Y407399D01*
X447230Y407082D01*
X446823Y406770D01*
X446457Y406623D01*
X446090Y406770D01*
X445683Y407082D01*
X444917Y407399D01*
X444095Y407508D01*
X443272Y407399D01*
X442506Y407082D01*
X441848Y406577D01*
X441343Y405919D01*
X441026Y405153D01*
X440918Y404331D01*
X441026Y403509D01*
X441343Y402742D01*
X441848Y402084D01*
X442506Y401580D01*
X443272Y401262D01*
X444095Y401154D01*
X444917Y401262D01*
X445683Y401580D01*
X446090Y401892D01*
X446457Y402038D01*
X446823Y401892D01*
X447230Y401580D01*
X447997Y401262D01*
X448819Y401154D01*
X449641Y401262D01*
X450407Y401580D01*
X451065Y402084D01*
X451570Y402742D01*
X451887Y403509D01*
X451996Y404331D01*
X451887Y405153D01*
X452260Y405560D01*
X452868Y405812D01*
X453526Y406317D01*
X454031Y406975D01*
X454348Y407741D01*
X454456Y408563D01*
X454348Y409385D01*
X454197Y409749D01*
X454580Y410132D01*
X455083Y409924D01*
X455905Y409815D01*
X456728Y409924D01*
X457494Y410241D01*
X458152Y410746D01*
X458657Y411404D01*
X458974Y412170D01*
X459082Y412992D01*
X458974Y413814D01*
X458657Y414580D01*
X458152Y415239D01*
X457494Y415743D01*
X456728Y416061D01*
X455905Y416169D01*
D02*
G37*
G36*
X322441D02*
X321619Y416061D01*
X320853Y415743D01*
X320195Y415239D01*
X319690Y414580D01*
X319372Y413814D01*
X319264Y412992D01*
X319372Y412170D01*
X319690Y411404D01*
X320195Y410746D01*
X320853Y410241D01*
X321619Y409924D01*
X322441Y409815D01*
X323263Y409924D01*
X324029Y410241D01*
X324687Y410746D01*
X325192Y411404D01*
X325510Y412170D01*
X325618Y412992D01*
X325510Y413814D01*
X325192Y414580D01*
X324687Y415239D01*
X324029Y415743D01*
X323263Y416061D01*
X322441Y416169D01*
D02*
G37*
G36*
X427953Y417350D02*
X427131Y417242D01*
X426364Y416924D01*
X425706Y416420D01*
X425202Y415762D01*
X424884Y414995D01*
X424776Y414173D01*
X424884Y413351D01*
X425202Y412585D01*
X425514Y412178D01*
X425660Y411811D01*
X425514Y411444D01*
X425202Y411037D01*
X424884Y410271D01*
X424776Y409449D01*
X424884Y408627D01*
X424986Y408382D01*
X424924Y408218D01*
X424652Y407881D01*
X423981Y407793D01*
X423215Y407476D01*
X422557Y406971D01*
X422052Y406313D01*
X421735Y405547D01*
X421626Y404724D01*
X421735Y403902D01*
X422052Y403136D01*
X422557Y402478D01*
X423215Y401973D01*
X423981Y401656D01*
X424803Y401548D01*
X425625Y401656D01*
X426392Y401973D01*
X427049Y402478D01*
X427554Y403136D01*
X427872Y403902D01*
X427980Y404724D01*
X427872Y405547D01*
X427770Y405792D01*
X427832Y405956D01*
X428104Y406292D01*
X428775Y406380D01*
X429541Y406698D01*
X430199Y407202D01*
X430704Y407860D01*
X431021Y408627D01*
X431130Y409449D01*
X431021Y410271D01*
X430704Y411037D01*
X430392Y411444D01*
X430245Y411811D01*
X430392Y412178D01*
X430704Y412585D01*
X431021Y413351D01*
X431130Y414173D01*
X431021Y414995D01*
X430704Y415762D01*
X430199Y416420D01*
X429541Y416924D01*
X428775Y417242D01*
X427953Y417350D01*
D02*
G37*
G36*
X344488Y400815D02*
X343666Y400706D01*
X343012Y400435D01*
X342358Y400706D01*
X341535Y400815D01*
X340713Y400706D01*
X339947Y400389D01*
X339289Y399884D01*
X338784Y399226D01*
X338467Y398460D01*
X338359Y397638D01*
X338467Y396816D01*
X338784Y396049D01*
X339289Y395392D01*
X339947Y394887D01*
X340713Y394569D01*
X341535Y394461D01*
X342358Y394569D01*
X343012Y394840D01*
X343666Y394569D01*
X344488Y394461D01*
X345310Y394569D01*
X346077Y394887D01*
X346734Y395392D01*
X347239Y396049D01*
X347557Y396816D01*
X347665Y397638D01*
X347557Y398460D01*
X347239Y399226D01*
X346734Y399884D01*
X346077Y400389D01*
X345310Y400706D01*
X344488Y400815D01*
D02*
G37*
G36*
X410512Y408498D02*
X409484Y408363D01*
X408526Y407967D01*
X407704Y407336D01*
X407073Y406513D01*
X406676Y405555D01*
X406541Y404528D01*
Y402165D01*
X406676Y401138D01*
X407073Y400180D01*
X407704Y399358D01*
X408526Y398726D01*
X409484Y398330D01*
X410512Y398194D01*
X411540Y398330D01*
X412497Y398726D01*
X413320Y399358D01*
X413951Y400180D01*
X414348Y401138D01*
X414483Y402165D01*
Y404528D01*
X414348Y405555D01*
X413951Y406513D01*
X413320Y407336D01*
X412497Y407967D01*
X411540Y408363D01*
X410512Y408498D01*
D02*
G37*
G36*
X376890D02*
X375862Y408363D01*
X374904Y407967D01*
X374082Y407336D01*
X373451Y406513D01*
X373054Y405555D01*
X372919Y404528D01*
Y402165D01*
X373054Y401138D01*
X373451Y400180D01*
X374082Y399358D01*
X374904Y398726D01*
X375862Y398330D01*
X376890Y398194D01*
X377918Y398330D01*
X378875Y398726D01*
X379698Y399358D01*
X380329Y400180D01*
X380725Y401138D01*
X380861Y402165D01*
Y404528D01*
X380725Y405555D01*
X380329Y406513D01*
X379698Y407336D01*
X378875Y407967D01*
X377918Y408363D01*
X376890Y408498D01*
D02*
G37*
G36*
X466142Y406326D02*
X465319Y406218D01*
X464553Y405901D01*
X463895Y405396D01*
X463391Y404738D01*
X463073Y403972D01*
X462965Y403150D01*
X463073Y402327D01*
X463391Y401561D01*
X463735Y401112D01*
X463721Y400471D01*
X463500Y400302D01*
X462995Y399644D01*
X462678Y398878D01*
X462570Y398055D01*
X462678Y397233D01*
X462995Y396467D01*
X463500Y395809D01*
X464158Y395304D01*
X464924Y394987D01*
X465747Y394879D01*
X466569Y394987D01*
X467335Y395304D01*
X467993Y395809D01*
X468498Y396467D01*
X468815Y397233D01*
X468924Y398055D01*
X468815Y398878D01*
X468498Y399644D01*
X468153Y400093D01*
X468168Y400734D01*
X468388Y400903D01*
X468893Y401561D01*
X469210Y402327D01*
X469318Y403150D01*
X469210Y403972D01*
X468893Y404738D01*
X468388Y405396D01*
X467730Y405901D01*
X466964Y406218D01*
X466142Y406326D01*
D02*
G37*
G36*
X452362Y401208D02*
X451540Y401100D01*
X450774Y400783D01*
X450116Y400278D01*
X449611Y399620D01*
X449294Y398854D01*
X449185Y398031D01*
X449294Y397209D01*
X449611Y396443D01*
X450116Y395785D01*
X450774Y395280D01*
X451540Y394963D01*
X452362Y394855D01*
X453184Y394963D01*
X453951Y395280D01*
X454608Y395785D01*
X455113Y396443D01*
X455431Y397209D01*
X455539Y398031D01*
X455431Y398854D01*
X455113Y399620D01*
X454608Y400278D01*
X453951Y400783D01*
X453184Y401100D01*
X452362Y401208D01*
D02*
G37*
G36*
X448425Y393334D02*
X447603Y393226D01*
X446837Y392909D01*
X446179Y392404D01*
X445674Y391746D01*
X445357Y390980D01*
X445248Y390158D01*
X445357Y389335D01*
X445674Y388569D01*
X446179Y387911D01*
X446837Y387406D01*
X447603Y387089D01*
X448425Y386981D01*
X449247Y387089D01*
X450014Y387406D01*
X450671Y387911D01*
X451176Y388569D01*
X451494Y389335D01*
X451602Y390158D01*
X451494Y390980D01*
X451176Y391746D01*
X450671Y392404D01*
X450014Y392909D01*
X449247Y393226D01*
X448425Y393334D01*
D02*
G37*
G36*
X438976Y393334D02*
X438154Y393226D01*
X437388Y392909D01*
X436730Y392404D01*
X436225Y391746D01*
X435908Y390980D01*
X435800Y390158D01*
X435908Y389335D01*
X436225Y388569D01*
X436730Y387911D01*
X437388Y387406D01*
X438154Y387089D01*
X438976Y386981D01*
X439799Y387089D01*
X440565Y387406D01*
X441223Y387911D01*
X441727Y388569D01*
X442045Y389335D01*
X442153Y390158D01*
X442045Y390980D01*
X441727Y391746D01*
X441223Y392404D01*
X440565Y392909D01*
X439799Y393226D01*
X438976Y393334D01*
D02*
G37*
%LPD*%
G36*
X405026Y428406D02*
X405044Y428301D01*
X405074Y428195D01*
X405116Y428088D01*
X405170Y427979D01*
X405236Y427868D01*
X405314Y427756D01*
X405404Y427642D01*
X405506Y427527D01*
X405620Y427410D01*
X403829D01*
X403943Y427527D01*
X404135Y427756D01*
X404213Y427868D01*
X404279Y427979D01*
X404333Y428088D01*
X404375Y428195D01*
X404405Y428301D01*
X404423Y428406D01*
X404429Y428509D01*
X405020D01*
X405026Y428406D01*
D02*
G37*
G36*
X382979D02*
X382997Y428301D01*
X383027Y428195D01*
X383068Y428088D01*
X383122Y427979D01*
X383189Y427868D01*
X383267Y427756D01*
X383357Y427642D01*
X383459Y427527D01*
X383573Y427410D01*
X381782D01*
X381896Y427527D01*
X382088Y427756D01*
X382166Y427868D01*
X382232Y427979D01*
X382286Y428088D01*
X382328Y428195D01*
X382358Y428301D01*
X382376Y428406D01*
X382382Y428509D01*
X382972D01*
X382979Y428406D01*
D02*
G37*
G36*
X405755Y427278D02*
X405984Y427085D01*
X406097Y427007D01*
X406207Y426941D01*
X406316Y426887D01*
X406424Y426845D01*
X406530Y426815D01*
X406634Y426797D01*
X406737Y426791D01*
Y426201D01*
X406634Y426195D01*
X406530Y426177D01*
X406424Y426147D01*
X406316Y426105D01*
X406207Y426051D01*
X406097Y425985D01*
X405984Y425907D01*
X405870Y425816D01*
X405755Y425714D01*
X405638Y425600D01*
Y427392D01*
X405755Y427278D01*
D02*
G37*
G36*
X381763Y425600D02*
X381646Y425714D01*
X381417Y425907D01*
X381305Y425985D01*
X381194Y426051D01*
X381085Y426105D01*
X380978Y426147D01*
X380872Y426177D01*
X380767Y426195D01*
X380664Y426201D01*
Y426791D01*
X380767Y426797D01*
X380872Y426815D01*
X380978Y426845D01*
X381085Y426887D01*
X381194Y426941D01*
X381305Y427007D01*
X381417Y427085D01*
X381531Y427176D01*
X381646Y427278D01*
X381763Y427392D01*
Y425600D01*
D02*
G37*
D10*
X323529Y422418D02*
G03*
X324677Y426931I-1482J2779D01*
G01*
X345122Y539341D02*
G03*
X345538Y544077I-1851J2549D01*
G01*
X341703Y632690D02*
G03*
X345538Y544077I51998J-42139D01*
G01*
X345122Y539341D02*
G03*
X324677Y426931I48579J-66900D01*
G01*
X323529Y422418D02*
G03*
X356918Y393705I11116J-20843D01*
G01*
X441863Y544077D02*
G03*
X442279Y539341I2266J-2187D01*
G01*
X441863Y544077D02*
G03*
X445699Y632690I-48163J46474D01*
G01*
X462720Y426934D02*
G03*
X463873Y422411I2634J-1737D01*
G01*
X430485Y393705D02*
G03*
X463873Y422418I22273J7870D01*
G01*
X462725Y426931D02*
G03*
X442279Y539341I-69024J45510D01*
G01*
X393701Y389764D02*
G03*
X426423Y395611I0J94488D01*
G01*
X430483Y393705D02*
G03*
X426423Y395611I-2970J-1049D01*
G01*
X405642Y651864D02*
G03*
X393701Y653543I-11941J-41628D01*
G01*
X472540Y712599D02*
G03*
X409650Y654640I-99J-62992D01*
G01*
X405642Y651864D02*
G03*
X409650Y654640I868J3028D01*
G01*
X446490Y637353D02*
G03*
X472540Y712596I-33105J53592D01*
G01*
X446490Y637353D02*
G03*
X445699Y632690I1655J-2680D01*
G01*
X341703D02*
G03*
X340911Y637353I-2447J1983D01*
G01*
X314861Y712596D02*
G03*
X340911Y637353I59154J-21651D01*
G01*
X377751Y654640D02*
G03*
X381759Y651864I3140J252D01*
G01*
X377751Y654640D02*
G03*
X314861Y712599I-62791J-5033D01*
G01*
X393701Y653543D02*
G03*
X381759Y651864I0J-43307D01*
G01*
X360979Y395611D02*
G03*
X356918Y393705I-1091J-2955D01*
G01*
X360979Y395611D02*
G03*
X393701Y389764I32722J88641D01*
G01*
D86*
X354823Y604331D02*
G03*
X343855Y616122I-11663J148D01*
G01*
X344882Y606299D02*
G03*
X341896Y608891I-2789J-197D01*
G01*
X341339Y618504D02*
G03*
X343855Y616122I2449J67D01*
G01*
X343307Y593110D02*
G03*
X354823Y604331I148J11368D01*
G01*
X332382D02*
G03*
X343307Y593110I11073J-148D01*
G01*
Y614961D02*
G03*
X332382Y604331I-148J-10778D01*
G01*
X353642D02*
G03*
X343307Y614961I-10482J148D01*
G01*
Y594291D02*
G03*
X353642Y604331I148J10187D01*
G01*
X333563D02*
G03*
X343307Y594291I9892J-148D01*
G01*
Y613779D02*
G03*
X333563Y604331I-148J-9596D01*
G01*
X352461D02*
G03*
X343307Y613779I-9301J148D01*
G01*
Y595472D02*
G03*
X352461Y604331I148J9006D01*
G01*
X334744D02*
G03*
X343307Y595472I8711J-148D01*
G01*
Y612598D02*
G03*
X334744Y604331I-148J-8415D01*
G01*
X351279D02*
G03*
X343307Y612598I-8120J148D01*
G01*
Y596654D02*
G03*
X351279Y604331I148J7825D01*
G01*
X335925D02*
G03*
X343307Y596654I7530J-148D01*
G01*
Y611417D02*
G03*
X335925Y604331I-148J-7234D01*
G01*
X350098D02*
G03*
X343307Y611417I-6939J148D01*
G01*
Y597835D02*
G03*
X350098Y604331I148J6644D01*
G01*
X337106D02*
G03*
X343307Y597835I6348J-148D01*
G01*
Y610236D02*
G03*
X337106Y604331I-148J-6053D01*
G01*
X348917D02*
G03*
X343307Y610236I-5758J148D01*
G01*
Y599016D02*
G03*
X348917Y604331I148J5463D01*
G01*
X338287D02*
G03*
X343307Y599016I5167J-148D01*
G01*
X341896Y608891D02*
G03*
X338287Y604331I1263J-4708D01*
G01*
X360138Y674409D02*
G03*
X342126Y692717I-18159J148D01*
G01*
Y656693D02*
G03*
X360138Y674409I148J17864D01*
G01*
X342126Y686811D02*
G03*
X329429Y674410I-148J-12549D01*
G01*
Y674409D02*
G03*
X342126Y661417I12844J-148D01*
G01*
Y648819D02*
G03*
X340339Y650867I-1917J131D01*
G01*
X318799Y674409D02*
G03*
X340339Y650867I23474J-148D01*
G01*
X342126Y697441D02*
G03*
X318799Y674409I-148J-23179D01*
G01*
X343701Y669685D02*
G03*
X347892Y669997I1939J2251D01*
G01*
X319980Y674409D02*
G03*
X342126Y651968I22293J-148D01*
G01*
X364862Y674409D02*
G03*
X342126Y697441I-22884J148D01*
G01*
Y651968D02*
G03*
X364862Y674409I148J22589D01*
G01*
X342126Y696260D02*
G03*
X319980Y674409I-148J-21998D01*
G01*
X363681D02*
G03*
X342126Y696260I-21703J148D01*
G01*
Y653150D02*
G03*
X363681Y674409I148J21407D01*
G01*
X321161D02*
G03*
X342126Y653150I21112J-148D01*
G01*
Y695079D02*
G03*
X321161Y674409I-148J-20817D01*
G01*
X362500D02*
G03*
X342126Y695079I-20522J148D01*
G01*
Y654331D02*
G03*
X362500Y674409I148J20226D01*
G01*
X322342D02*
G03*
X342126Y654331I19931J-148D01*
G01*
Y693898D02*
G03*
X322342Y674409I-148J-19636D01*
G01*
X361319D02*
G03*
X342126Y693898I-19341J148D01*
G01*
Y655512D02*
G03*
X361319Y674409I148J19045D01*
G01*
X323524D02*
G03*
X342126Y655512I18750J-148D01*
G01*
Y692717D02*
G03*
X323524Y674409I-148J-18455D01*
G01*
X342126Y691535D02*
G03*
X324705Y674409I-148J-17274D01*
G01*
X358957D02*
G03*
X342126Y691535I-16978J148D01*
G01*
Y657874D02*
G03*
X358957Y674409I148J16683D01*
G01*
X324705D02*
G03*
X342126Y656693I17569J-148D01*
G01*
X325886Y674409D02*
G03*
X342126Y657874I16388J-148D01*
G01*
Y690354D02*
G03*
X325886Y674409I-148J-16093D01*
G01*
X357776D02*
G03*
X342126Y690354I-15797J148D01*
G01*
Y659055D02*
G03*
X357776Y674409I148J15502D01*
G01*
X327067D02*
G03*
X342126Y659055I15207J-148D01*
G01*
Y689173D02*
G03*
X327067Y674409I-148J-14911D01*
G01*
X356594D02*
G03*
X342126Y689173I-14616J148D01*
G01*
Y660236D02*
G03*
X356594Y674409I148J14321D01*
G01*
X328248D02*
G03*
X342126Y660236I14026J-148D01*
G01*
Y687992D02*
G03*
X328248Y674409I-148J-13730D01*
G01*
X355413D02*
G03*
X342126Y687992I-13435J148D01*
G01*
Y661417D02*
G03*
X355413Y674409I148J13140D01*
G01*
X354232D02*
G03*
X342126Y686811I-12254J148D01*
G01*
Y662598D02*
G03*
X354232Y674409I148J11959D01*
G01*
X330610D02*
G03*
X342126Y662598I11663J-148D01*
G01*
Y685630D02*
G03*
X330610Y674409I-148J-11368D01*
G01*
X353051D02*
G03*
X342126Y685630I-11073J148D01*
G01*
Y663779D02*
G03*
X353051Y674409I148J10778D01*
G01*
X331791D02*
G03*
X342126Y663779I10482J-148D01*
G01*
Y684449D02*
G03*
X331791Y674409I-148J-10187D01*
G01*
X351870D02*
G03*
X342126Y684449I-9892J148D01*
G01*
Y664961D02*
G03*
X351870Y674409I148J9596D01*
G01*
X332972D02*
G03*
X342126Y664961I9301J-148D01*
G01*
Y683268D02*
G03*
X332972Y674409I-148J-9006D01*
G01*
X350689D02*
G03*
X342126Y683268I-8711J148D01*
G01*
Y666142D02*
G03*
X350689Y674409I148J8415D01*
G01*
X334154D02*
G03*
X342126Y666142I8120J-148D01*
G01*
Y682087D02*
G03*
X334154Y674409I-148J-7825D01*
G01*
X349508D02*
G03*
X342126Y682087I-7530J148D01*
G01*
X347892Y669997D02*
G03*
X349508Y674409I-5618J4560D01*
G01*
X382677Y426496D02*
Y428804D01*
X379528Y427165D02*
X380197Y426496D01*
X382677D01*
X404724D02*
X407205D01*
X407874Y427165D01*
X404724Y426496D02*
Y428804D01*
D90*
Y426496D02*
D03*
X401575D02*
D03*
X403150Y423740D02*
D03*
X395276Y426496D02*
D03*
X396850Y423740D02*
D03*
X398425Y426496D02*
D03*
X392126D02*
D03*
X390551Y423740D02*
D03*
X388976Y426496D02*
D03*
X387402Y423740D02*
D03*
X385827Y426496D02*
D03*
X384252Y423740D02*
D03*
X382677Y426496D02*
D03*
D91*
X400000Y423740D02*
D03*
X395276Y515354D02*
D03*
X442913Y558268D02*
D03*
X443701Y530315D02*
D03*
X400000Y445669D02*
D03*
X330315Y498819D02*
D03*
X316929Y393307D02*
D03*
X448819Y404331D02*
D03*
X451279Y408563D02*
D03*
X337008Y384646D02*
D03*
X329183Y407480D02*
D03*
X322441Y412992D02*
D03*
X325984Y418898D02*
D03*
X444095Y404331D02*
D03*
X425984Y505905D02*
D03*
X419488Y503937D02*
D03*
X340551Y494882D02*
D03*
X355118Y503937D02*
D03*
X424803Y404724D02*
D03*
X413779Y562992D02*
D03*
X364567Y567323D02*
D03*
X363386Y561417D02*
D03*
X366929Y564173D02*
D03*
X359449Y551181D02*
D03*
X358661Y540945D02*
D03*
X355906Y532874D02*
D03*
X370472Y567323D02*
D03*
X351575Y515748D02*
D03*
X340551Y498425D02*
D03*
X346457Y555512D02*
D03*
X363779Y505905D02*
D03*
X367323Y506299D02*
D03*
X437402Y558268D02*
D03*
X412992Y598425D02*
D03*
X367323Y607480D02*
D03*
X378740Y603642D02*
D03*
X350394Y616535D02*
D03*
X341339Y618504D02*
D03*
X344882Y606299D02*
D03*
X341339D02*
D03*
X345276Y648819D02*
D03*
X342126D02*
D03*
X343701Y669685D02*
D03*
X340551D02*
D03*
X427559Y600000D02*
D03*
X421752Y609842D02*
D03*
X427165Y648032D02*
D03*
X414961Y603150D02*
D03*
X383071Y474409D02*
D03*
X431102Y470079D02*
D03*
Y482283D02*
D03*
X386221Y596063D02*
D03*
X385433Y611319D02*
D03*
X382677Y608760D02*
D03*
X378740Y599902D02*
D03*
X377165Y587795D02*
D03*
X430315Y518898D02*
D03*
X440945Y503937D02*
D03*
X412598Y514173D02*
D03*
X419488Y526772D02*
D03*
X446457Y466929D02*
D03*
X406693Y530315D02*
D03*
X443504Y464567D02*
D03*
X452362Y462205D02*
D03*
X405118Y500394D02*
D03*
X449409Y459842D02*
D03*
X430315Y528346D02*
D03*
X323228Y467323D02*
D03*
X330315D02*
D03*
X326772D02*
D03*
X344488Y437402D02*
D03*
X336417Y426772D02*
D03*
X369291Y460630D02*
D03*
X361024Y427165D02*
D03*
X371063Y428740D02*
D03*
Y425591D02*
D03*
Y422441D02*
D03*
X349606Y411024D02*
D03*
X367717Y472047D02*
D03*
X379937Y471242D02*
D03*
X379921Y461024D02*
D03*
X387402Y476772D02*
D03*
X413386Y437795D02*
D03*
X426181Y428150D02*
D03*
Y441732D02*
D03*
X422244D02*
D03*
X418307D02*
D03*
X426575Y435236D02*
D03*
X465747Y398055D02*
D03*
X452362Y398031D02*
D03*
X466142Y403150D02*
D03*
X455905Y412992D02*
D03*
X419685Y535039D02*
D03*
X401575Y471299D02*
D03*
X368504Y509449D02*
D03*
X361024Y538583D02*
D03*
X350000Y532874D02*
D03*
X365354Y544488D02*
D03*
X354331Y521457D02*
D03*
X350000D02*
D03*
X418898Y538976D02*
D03*
X409449Y535827D02*
D03*
X364173Y501968D02*
D03*
X384252Y491339D02*
D03*
X367717Y497244D02*
D03*
X364961Y494488D02*
D03*
X362205Y497244D02*
D03*
X378346Y502362D02*
D03*
X409055Y522441D02*
D03*
X407874Y519291D02*
D03*
X409055Y565748D02*
D03*
X388976Y500000D02*
D03*
X386221Y502362D02*
D03*
X343701Y525591D02*
D03*
X344882Y520079D02*
D03*
X338268Y522441D02*
D03*
X330315Y509055D02*
D03*
X334646Y522441D02*
D03*
X437402Y554331D02*
D03*
X436890Y546850D02*
D03*
X437008Y550138D02*
D03*
X426772D02*
D03*
X421654Y565354D02*
D03*
X390748Y528925D02*
D03*
X386614Y557480D02*
D03*
X390158D02*
D03*
X403937Y540945D02*
D03*
X397638Y557087D02*
D03*
X393701Y520472D02*
D03*
X383465Y526378D02*
D03*
X412598Y592520D02*
D03*
X398425Y570472D02*
D03*
Y577559D02*
D03*
X419488Y531102D02*
D03*
X416536Y515158D02*
D03*
X424213Y570079D02*
D03*
X424213Y574409D02*
D03*
X416308Y464525D02*
D03*
X419261Y471415D02*
D03*
X398622Y464724D02*
D03*
X368110Y532874D02*
D03*
X363740Y592913D02*
D03*
X373268Y592677D02*
D03*
X398819Y605905D02*
D03*
X399213Y600787D02*
D03*
X451969Y571654D02*
D03*
Y585827D02*
D03*
X435945Y577855D02*
D03*
X341457D02*
D03*
X357480Y585827D02*
D03*
Y571654D02*
D03*
X408268Y559842D02*
D03*
X393701Y557480D02*
D03*
X363382Y575634D02*
D03*
X363583Y579921D02*
D03*
Y584252D02*
D03*
X405315Y590650D02*
D03*
X388937Y592520D02*
D03*
X398465Y592520D02*
D03*
X424213Y578740D02*
D03*
X392717Y436221D02*
D03*
X377559Y522047D02*
D03*
X379134Y524803D02*
D03*
X379528Y513386D02*
D03*
X368110D02*
D03*
X379724Y516732D02*
D03*
X465354Y457087D02*
D03*
X459449Y446457D02*
D03*
X427953Y409449D02*
D03*
X441339Y414173D02*
D03*
X441732Y419685D02*
D03*
X427953Y414173D02*
D03*
X422244Y428150D02*
D03*
X418307D02*
D03*
X367126Y438976D02*
D03*
X354331Y429134D02*
D03*
X341535Y397638D02*
D03*
X344488D02*
D03*
X348425Y428150D02*
D03*
X332677Y407480D02*
D03*
X363189Y418307D02*
D03*
X382874Y436221D02*
D03*
X395276Y438976D02*
D03*
X438976Y390158D02*
D03*
X443701Y390158D02*
D03*
X448425D02*
D03*
D92*
X410512Y403346D02*
D03*
X376890Y421969D02*
D03*
Y403346D02*
D03*
X410512Y421969D02*
D03*
D93*
X354331Y496063D02*
D03*
X393701Y444882D02*
D03*
X433071Y496063D02*
D03*
D94*
X326638Y452203D02*
D03*
X331630Y441498D02*
D03*
M02*
