G04*
G04 #@! TF.GenerationSoftware,Altium Limited,Altium Designer,24.2.2 (26)*
G04*
G04 Layer_Color=8421504*
%FSLAX25Y25*%
%MOIN*%
G70*
G04*
G04 #@! TF.SameCoordinates,A7374CB3-C572-496A-BD66-24450F52A8E5*
G04*
G04*
G04 #@! TF.FilePolarity,Positive*
G04*
G01*
G75*
%ADD10C,0.00394*%
G04:AMPARAMS|DCode=11|XSize=31.5mil|YSize=66.93mil|CornerRadius=7.87mil|HoleSize=0mil|Usage=FLASHONLY|Rotation=90.000|XOffset=0mil|YOffset=0mil|HoleType=Round|Shape=RoundedRectangle|*
%AMROUNDEDRECTD11*
21,1,0.03150,0.05118,0,0,90.0*
21,1,0.01575,0.06693,0,0,90.0*
1,1,0.01575,0.02559,0.00787*
1,1,0.01575,0.02559,-0.00787*
1,1,0.01575,-0.02559,-0.00787*
1,1,0.01575,-0.02559,0.00787*
%
%ADD11ROUNDEDRECTD11*%
G04:AMPARAMS|DCode=12|XSize=31.5mil|YSize=43.31mil|CornerRadius=7.87mil|HoleSize=0mil|Usage=FLASHONLY|Rotation=270.000|XOffset=0mil|YOffset=0mil|HoleType=Round|Shape=RoundedRectangle|*
%AMROUNDEDRECTD12*
21,1,0.03150,0.02756,0,0,270.0*
21,1,0.01575,0.04331,0,0,270.0*
1,1,0.01575,-0.01378,-0.00787*
1,1,0.01575,-0.01378,0.00787*
1,1,0.01575,0.01378,0.00787*
1,1,0.01575,0.01378,-0.00787*
%
%ADD12ROUNDEDRECTD12*%
%ADD13R,0.02362X0.02362*%
%ADD14R,0.02362X0.03937*%
%ADD15R,0.04331X0.02362*%
%ADD16R,0.02362X0.02362*%
%ADD17R,0.01083X0.00984*%
%ADD18R,0.00984X0.01083*%
%ADD19R,0.02520X0.02520*%
%ADD20R,0.03150X0.02362*%
%ADD21R,0.03937X0.02362*%
%ADD22R,0.07677X0.04331*%
G04:AMPARAMS|DCode=23|XSize=27.56mil|YSize=43.31mil|CornerRadius=0mil|HoleSize=0mil|Usage=FLASHONLY|Rotation=115.000|XOffset=0mil|YOffset=0mil|HoleType=Round|Shape=Rectangle|*
%AMROTATEDRECTD23*
4,1,4,0.02545,-0.00334,-0.01380,-0.02164,-0.02545,0.00334,0.01380,0.02164,0.02545,-0.00334,0.0*
%
%ADD23ROTATEDRECTD23*%

G04:AMPARAMS|DCode=24|XSize=39.37mil|YSize=31.5mil|CornerRadius=0mil|HoleSize=0mil|Usage=FLASHONLY|Rotation=115.000|XOffset=0mil|YOffset=0mil|HoleType=Round|Shape=Rectangle|*
%AMROTATEDRECTD24*
4,1,4,0.02259,-0.01119,-0.00595,-0.02450,-0.02259,0.01119,0.00595,0.02450,0.02259,-0.01119,0.0*
%
%ADD24ROTATEDRECTD24*%

%ADD25R,0.03543X0.03150*%
%ADD26R,0.05118X0.03937*%
%ADD27R,0.06693X0.04331*%
%ADD28R,0.03150X0.03150*%
%ADD29R,0.13583X0.13583*%
%ADD30R,0.12795X0.12795*%
%ADD31O,0.00984X0.03937*%
%ADD32O,0.03937X0.00984*%
%ADD33R,0.05000X0.07008*%
%ADD34R,0.03150X0.03543*%
%ADD35R,0.02756X0.02953*%
%ADD36R,0.01181X0.01968*%
%ADD37R,0.02362X0.00984*%
%ADD38R,0.01083X0.00984*%
%ADD39R,0.00984X0.01083*%
G04:AMPARAMS|DCode=40|XSize=74.8mil|YSize=118.11mil|CornerRadius=18.7mil|HoleSize=0mil|Usage=FLASHONLY|Rotation=0.000|XOffset=0mil|YOffset=0mil|HoleType=Round|Shape=RoundedRectangle|*
%AMROUNDEDRECTD40*
21,1,0.07480,0.08071,0,0,0.0*
21,1,0.03740,0.11811,0,0,0.0*
1,1,0.03740,0.01870,-0.04035*
1,1,0.03740,-0.01870,-0.04035*
1,1,0.03740,-0.01870,0.04035*
1,1,0.03740,0.01870,0.04035*
%
%ADD40ROUNDEDRECTD40*%
%ADD41R,0.00984X0.02756*%
%ADD42R,0.02756X0.00984*%
%ADD43R,0.03150X0.03150*%
D10*
X323529Y422418D02*
G03*
X324677Y426931I-1482J2779D01*
G01*
X345122Y539341D02*
G03*
X345538Y544077I-1851J2549D01*
G01*
X341703Y632690D02*
G03*
X345538Y544077I51998J-42139D01*
G01*
X345122Y539341D02*
G03*
X324677Y426931I48579J-66900D01*
G01*
X323529Y422418D02*
G03*
X356918Y393705I11116J-20843D01*
G01*
X441863Y544077D02*
G03*
X442279Y539341I2266J-2187D01*
G01*
X441863Y544077D02*
G03*
X445699Y632690I-48163J46474D01*
G01*
X462720Y426934D02*
G03*
X463873Y422411I2634J-1737D01*
G01*
X430485Y393705D02*
G03*
X463873Y422418I22273J7870D01*
G01*
X462725Y426931D02*
G03*
X442279Y539341I-69024J45510D01*
G01*
X393701Y389764D02*
G03*
X426423Y395611I0J94488D01*
G01*
X430483Y393705D02*
G03*
X426423Y395611I-2970J-1049D01*
G01*
X405642Y651864D02*
G03*
X393701Y653543I-11941J-41628D01*
G01*
X472540Y712599D02*
G03*
X409650Y654640I-99J-62992D01*
G01*
X405642Y651864D02*
G03*
X409650Y654640I868J3028D01*
G01*
X446490Y637353D02*
G03*
X472540Y712596I-33105J53592D01*
G01*
X446490Y637353D02*
G03*
X445699Y632690I1655J-2680D01*
G01*
X341703D02*
G03*
X340911Y637353I-2447J1983D01*
G01*
X314861Y712596D02*
G03*
X340911Y637353I59154J-21651D01*
G01*
X377751Y654640D02*
G03*
X381759Y651864I3140J252D01*
G01*
X377751Y654640D02*
G03*
X314861Y712599I-62791J-5033D01*
G01*
X393701Y653543D02*
G03*
X381759Y651864I0J-43307D01*
G01*
X360979Y395611D02*
G03*
X356918Y393705I-1091J-2955D01*
G01*
X360979Y395611D02*
G03*
X393701Y389764I32722J88641D01*
G01*
D11*
X440945Y509055D02*
D03*
Y522441D02*
D03*
D12*
X447441Y515748D02*
D03*
D13*
X320472Y394488D02*
D03*
X324409D02*
D03*
X372047Y525197D02*
D03*
X368110D02*
D03*
X372047Y529921D02*
D03*
X368110D02*
D03*
X391732Y534252D02*
D03*
X395669Y534252D02*
D03*
X391732Y538583D02*
D03*
X395669D02*
D03*
X412598Y526772D02*
D03*
X416535D02*
D03*
X412598Y503937D02*
D03*
X416535D02*
D03*
X336614Y405512D02*
D03*
X340551D02*
D03*
X336614Y401181D02*
D03*
X340551D02*
D03*
X412598Y518110D02*
D03*
X416535D02*
D03*
X412598Y522441D02*
D03*
X416535D02*
D03*
X412598Y531102D02*
D03*
X416535D02*
D03*
D14*
X318701Y400000D02*
D03*
X326181D02*
D03*
X322441Y409449D02*
D03*
D15*
X413386Y449409D02*
D03*
Y445669D02*
D03*
Y441929D02*
D03*
X403937D02*
D03*
Y445669D02*
D03*
Y449409D02*
D03*
D16*
X387008Y495276D02*
D03*
Y491339D02*
D03*
X434252Y558268D02*
D03*
Y554331D02*
D03*
X391339Y491339D02*
D03*
Y495276D02*
D03*
X358661Y529134D02*
D03*
Y525197D02*
D03*
X372441Y507874D02*
D03*
Y511811D02*
D03*
X395669Y495276D02*
D03*
X395669Y491339D02*
D03*
X437598Y447244D02*
D03*
Y443307D02*
D03*
X390551Y414173D02*
D03*
Y418110D02*
D03*
X372477Y520462D02*
D03*
Y516525D02*
D03*
X448425Y392913D02*
D03*
Y396850D02*
D03*
X443701Y392913D02*
D03*
Y396850D02*
D03*
X438976Y396850D02*
D03*
Y392913D02*
D03*
X421654Y412992D02*
D03*
Y416929D02*
D03*
Y408661D02*
D03*
Y404724D02*
D03*
X401968Y491339D02*
D03*
Y495276D02*
D03*
X389370Y468110D02*
D03*
Y464173D02*
D03*
X426772Y554331D02*
D03*
Y558268D02*
D03*
Y546063D02*
D03*
Y542126D02*
D03*
X419261Y468462D02*
D03*
Y464525D02*
D03*
X362205Y464173D02*
D03*
Y468110D02*
D03*
X350000Y529134D02*
D03*
Y525197D02*
D03*
X354331Y529134D02*
D03*
Y525197D02*
D03*
X431693Y447244D02*
D03*
Y443307D02*
D03*
X434646Y456102D02*
D03*
Y452165D02*
D03*
X440551Y456102D02*
D03*
Y452165D02*
D03*
X443504Y447244D02*
D03*
Y443307D02*
D03*
X446457Y456102D02*
D03*
Y452165D02*
D03*
X449409Y443307D02*
D03*
Y447244D02*
D03*
X452362Y456102D02*
D03*
Y452165D02*
D03*
D17*
X339934Y514764D02*
D03*
Y516732D02*
D03*
X333295Y514764D02*
D03*
Y516732D02*
D03*
D18*
X339567Y519065D02*
D03*
X333661D02*
D03*
X335630D02*
D03*
X337598D02*
D03*
X339567Y512431D02*
D03*
X333661D02*
D03*
X335630D02*
D03*
X337598D02*
D03*
D19*
X433858Y545905D02*
D03*
Y542283D02*
D03*
X344882Y517165D02*
D03*
Y513543D02*
D03*
X368110Y520315D02*
D03*
Y516693D02*
D03*
X401575Y464724D02*
D03*
Y468347D02*
D03*
X379929Y464322D02*
D03*
Y467944D02*
D03*
X384629Y464322D02*
D03*
Y467944D02*
D03*
D20*
X421850Y432087D02*
D03*
X426575D02*
D03*
X426772Y438583D02*
D03*
X422047D02*
D03*
D21*
X333661Y417323D02*
D03*
X343110Y421063D02*
D03*
Y413583D02*
D03*
D22*
X354331Y421850D02*
D03*
Y404921D02*
D03*
D23*
X340192Y442233D02*
D03*
X337696Y447585D02*
D03*
X332705Y458290D02*
D03*
D24*
X326998Y462144D02*
D03*
X318791Y458318D02*
D03*
X339477Y435383D02*
D03*
X331270Y431556D02*
D03*
D25*
X366142Y424409D02*
D03*
Y429921D02*
D03*
D26*
X398819Y399606D02*
D03*
Y405905D02*
D03*
D27*
X387402Y407283D02*
D03*
Y396654D02*
D03*
D28*
X330413Y394685D02*
D03*
X336909D02*
D03*
D29*
X393701Y515748D02*
D03*
D30*
X442126Y418110D02*
D03*
D31*
X436221Y427264D02*
D03*
X438189D02*
D03*
X440158D02*
D03*
X442126D02*
D03*
X444095D02*
D03*
X446063D02*
D03*
X448032D02*
D03*
Y408957D02*
D03*
X446063D02*
D03*
X444095D02*
D03*
X442126D02*
D03*
X440158D02*
D03*
X438189D02*
D03*
X436221D02*
D03*
D32*
X451279Y424016D02*
D03*
Y422047D02*
D03*
Y420079D02*
D03*
Y418110D02*
D03*
Y416142D02*
D03*
Y414173D02*
D03*
Y412205D02*
D03*
X432972D02*
D03*
Y414173D02*
D03*
Y416142D02*
D03*
Y418110D02*
D03*
Y420079D02*
D03*
Y422047D02*
D03*
Y424016D02*
D03*
D33*
X435945Y586240D02*
D03*
X445945D02*
D03*
Y571240D02*
D03*
X435945D02*
D03*
X341457Y586240D02*
D03*
X351457D02*
D03*
Y571240D02*
D03*
X341457D02*
D03*
D34*
X465354Y460630D02*
D03*
X459842D02*
D03*
D35*
X459449Y455217D02*
D03*
Y449508D02*
D03*
D36*
X464172Y475149D02*
D03*
Y469637D02*
D03*
X461022D02*
D03*
Y475149D02*
D03*
D37*
X407480Y469488D02*
D03*
Y467520D02*
D03*
Y465551D02*
D03*
Y463583D02*
D03*
X412992Y469488D02*
D03*
Y467520D02*
D03*
Y465551D02*
D03*
Y463583D02*
D03*
D38*
X374803Y464567D02*
D03*
Y466536D02*
D03*
Y468504D02*
D03*
X368795Y464567D02*
D03*
Y466536D02*
D03*
X368797Y468504D02*
D03*
D39*
X372783Y463531D02*
D03*
X370815D02*
D03*
Y469537D02*
D03*
X372783D02*
D03*
D40*
X383701Y627953D02*
D03*
X393701D02*
D03*
X373701D02*
D03*
X403701D02*
D03*
X413701D02*
D03*
X403701Y549213D02*
D03*
X393701D02*
D03*
X413701D02*
D03*
X383701D02*
D03*
X373701D02*
D03*
D41*
X386811Y525197D02*
D03*
X388779D02*
D03*
X390748D02*
D03*
X392717D02*
D03*
X394685D02*
D03*
X396654D02*
D03*
X398622D02*
D03*
X400591D02*
D03*
Y506299D02*
D03*
X398622D02*
D03*
X396654D02*
D03*
X394685D02*
D03*
X392717D02*
D03*
X390748D02*
D03*
X388779D02*
D03*
X386811D02*
D03*
D42*
X403150Y522638D02*
D03*
Y520669D02*
D03*
Y518701D02*
D03*
Y516732D02*
D03*
Y514764D02*
D03*
Y512795D02*
D03*
Y510827D02*
D03*
Y508858D02*
D03*
X384252D02*
D03*
Y510827D02*
D03*
Y512795D02*
D03*
Y514764D02*
D03*
Y516732D02*
D03*
Y518701D02*
D03*
Y520669D02*
D03*
Y522638D02*
D03*
D43*
X455904Y404405D02*
D03*
Y397909D02*
D03*
X462205Y404429D02*
D03*
X462205Y397933D02*
D03*
M02*
