%FSTAX23Y23*%
%MOIN*%
%SFA1B1*%

%IPPOS*%
%AMD48*
4,1,8,-0.026800,0.006300,-0.026800,-0.006300,-0.020500,-0.012600,0.020500,-0.012600,0.026800,-0.006300,0.026800,0.006300,0.020500,0.012600,-0.020500,0.012600,-0.026800,0.006300,0.0*
1,1,0.012592,-0.020500,0.006300*
1,1,0.012592,-0.020500,-0.006300*
1,1,0.012592,0.020500,-0.006300*
1,1,0.012592,0.020500,0.006300*
%
%AMD49*
4,1,8,0.017300,-0.006300,0.017300,0.006300,0.011000,0.012600,-0.011000,0.012600,-0.017300,0.006300,-0.017300,-0.006300,-0.011000,-0.012600,0.011000,-0.012600,0.017300,-0.006300,0.0*
1,1,0.012592,0.011000,-0.006300*
1,1,0.012592,0.011000,0.006300*
1,1,0.012592,-0.011000,0.006300*
1,1,0.012592,-0.011000,-0.006300*
%
%AMD59*
4,1,4,-0.020300,0.002700,-0.011000,-0.017300,0.020300,-0.002700,0.011000,0.017300,-0.020300,0.002700,0.0*
%
%AMD60*
4,1,4,-0.018100,0.008900,-0.004800,-0.019600,0.018100,-0.008900,0.004800,0.019600,-0.018100,0.008900,0.0*
%
%AMD73*
4,1,8,0.015000,0.047200,-0.015000,0.047200,-0.029900,0.032300,-0.029900,-0.032300,-0.015000,-0.047200,0.015000,-0.047200,0.029900,-0.032300,0.029900,0.032300,0.015000,0.047200,0.0*
1,1,0.029920,0.015000,0.032300*
1,1,0.029920,-0.015000,0.032300*
1,1,0.029920,-0.015000,-0.032300*
1,1,0.029920,0.015000,-0.032300*
%
%AMD120*
4,1,4,-0.001100,-0.018900,0.018900,0.001100,0.001100,0.018900,-0.018900,-0.001100,-0.001100,-0.018900,0.0*
%
%AMD121*
4,1,4,0.009400,-0.013500,0.015200,-0.006100,-0.009400,0.013500,-0.015200,0.006100,0.009400,-0.013500,0.0*
%
%AMD122*
4,1,4,-0.000200,-0.033000,0.032100,0.007600,0.000200,0.033000,-0.032100,-0.007600,-0.000200,-0.033000,0.0*
%
%ADD14R,0.023620X0.023620*%
%ADD19R,0.025200X0.025200*%
G04~CAMADD=48~8~0.0~0.0~252.0~535.4~63.0~0.0~15~0.0~0.0~0.0~0.0~0~0.0~0.0~0.0~0.0~0~0.0~0.0~0.0~90.0~536.0~252.0*
%ADD48D48*%
G04~CAMADD=49~8~0.0~0.0~252.0~346.5~63.0~0.0~15~0.0~0.0~0.0~0.0~0~0.0~0.0~0.0~0.0~0~0.0~0.0~0.0~270.0~346.0~251.0*
%ADD49D49*%
%ADD50R,0.018896X0.018896*%
%ADD51R,0.018896X0.031496*%
%ADD52R,0.034648X0.018896*%
%ADD53R,0.008664X0.007872*%
%ADD54R,0.007872X0.008664*%
%ADD55R,0.020160X0.020160*%
%ADD56R,0.025200X0.018896*%
%ADD57R,0.031496X0.018896*%
%ADD58R,0.061416X0.034648*%
G04~CAMADD=59~9~0.0~0.0~220.5~346.5~0.0~0.0~0~0.0~0.0~0.0~0.0~0~0.0~0.0~0.0~0.0~0~0.0~0.0~0.0~115.0~406.0~345.0*
%ADD59D59*%
G04~CAMADD=60~9~0.0~0.0~315.0~252.0~0.0~0.0~0~0.0~0.0~0.0~0.0~0~0.0~0.0~0.0~0.0~0~0.0~0.0~0.0~115.0~362.0~391.0*
%ADD60D60*%
%ADD61R,0.028344X0.025200*%
%ADD62R,0.040944X0.031496*%
%ADD63R,0.053544X0.034648*%
%ADD64R,0.108664X0.108664*%
%ADD65R,0.102360X0.102360*%
%ADD66O,0.007872X0.031496*%
%ADD67O,0.031496X0.007872*%
%ADD68R,0.040000X0.056064*%
%ADD69R,0.025200X0.028344*%
%ADD70R,0.022048X0.023624*%
%ADD71R,0.009448X0.015744*%
%ADD72R,0.018896X0.007872*%
G04~CAMADD=73~8~0.0~0.0~598.4~944.9~149.6~0.0~15~0.0~0.0~0.0~0.0~0~0.0~0.0~0.0~0.0~0~0.0~0.0~0.0~0.0~598.4~944.9*
%ADD73D73*%
%ADD74R,0.007872X0.022048*%
%ADD75R,0.022048X0.007872*%
%ADD76R,0.006296X0.031496*%
%ADD77R,0.009448X0.037792*%
%ADD78R,0.062992X0.034328*%
%ADD79R,0.007872X0.023624*%
%ADD80R,0.031496X0.100784*%
%ADD81R,0.015744X0.031496*%
%ADD83O,0.045672X0.018896*%
%ADD84R,0.021256X0.007872*%
%ADD85R,0.007872X0.021256*%
%ADD86O,0.026776X0.009448*%
%ADD88O,0.009448X0.026776*%
%ADD92O,0.042520X0.009448*%
%ADD118R,0.031496X0.031496*%
%ADD119O,0.044096X0.014176*%
G04~CAMADD=120~9~0.0~0.0~283.4~252.0~0.0~0.0~0~0.0~0.0~0.0~0.0~0~0.0~0.0~0.0~0.0~0~0.0~0.0~0.0~225.0~378.0~377.0*
%ADD120D120*%
G04~CAMADD=121~9~0.0~0.0~94.5~315.0~0.0~0.0~0~0.0~0.0~0.0~0.0~0~0.0~0.0~0.0~0.0~0~0.0~0.0~0.0~231.5~304.0~269.0*
%ADD121D121*%
G04~CAMADD=122~9~0.0~0.0~519.7~409.4~0.0~0.0~0~0.0~0.0~0.0~0.0~0~0.0~0.0~0.0~0.0~0~0.0~0.0~0.0~231.5~642.0~659.0*
%ADD122D122*%
%ADD123R,0.069288X0.069288*%
%LN00400-28669-1yya-1*%
%LPD*%
G54D14*
X0Y0D02*
Y04723D01*
X063*
Y0*
X0*
G54D48*
X02441Y02341D03*
Y02475D03*
G54D49*
X02506Y02408D03*
G54D50*
X01237Y01196D03*
X01276D03*
X01752Y02503D03*
X01713D03*
X01752Y0255D03*
X01713D03*
X01949Y02593D03*
X01989D03*
X01949Y02637D03*
X01989D03*
X02158Y02519D03*
X02197D03*
X02158Y0229D03*
X02197D03*
X01398Y01306D03*
X01437D03*
X01398Y01263D03*
X01437D03*
X02158Y02432D03*
X02197D03*
X02158Y02475D03*
X02197D03*
X02158Y02562D03*
X02197D03*
G54D51*
X01219Y01251D03*
X01294D03*
X01256Y01345D03*
G54D52*
X02166Y01745D03*
Y01708D03*
Y0167D03*
X02071D03*
Y01708D03*
Y01745D03*
G54D50*
X01902Y02204D03*
Y02164D03*
X02375Y02834D03*
Y02794D03*
X01945Y02164D03*
Y02204D03*
X01619Y02542D03*
Y02503D03*
X01756Y0233D03*
Y02369D03*
X01989Y02204D03*
Y02164D03*
X02408Y01723D03*
Y01684D03*
X01937Y01393D03*
Y01432D03*
X01757Y02456D03*
Y02416D03*
X02516Y0118D03*
Y01219D03*
X02469Y0118D03*
Y01219D03*
X02422D03*
Y0118D03*
X02249Y01381D03*
Y0142D03*
Y01337D03*
Y01298D03*
X02052Y02164D03*
Y02204D03*
X01926Y01932D03*
Y01893D03*
X023Y02794D03*
Y02834D03*
Y02712D03*
Y02672D03*
X02225Y01936D03*
Y01896D03*
X01654Y01893D03*
Y01932D03*
X01532Y02542D03*
Y02503D03*
X01575Y02542D03*
Y02503D03*
X02349Y01723D03*
Y01684D03*
X02378Y01812D03*
Y01773D03*
X02437Y01812D03*
Y01773D03*
X02467Y01723D03*
Y01684D03*
X02497Y01812D03*
Y01773D03*
X02526Y01684D03*
Y01723D03*
X02556Y01812D03*
Y01773D03*
G54D53*
X01431Y02399D03*
Y02418D03*
X01365Y02399D03*
Y02418D03*
G54D54*
X01428Y02442D03*
X01369D03*
X01388D03*
X01408D03*
X01428Y02375D03*
X01369D03*
X01388D03*
X01408D03*
G54D55*
X02371Y0271D03*
Y02674D03*
X01481Y02423D03*
Y02386D03*
X01713Y02454D03*
Y02418D03*
X02048Y01898D03*
Y01934D03*
X01831Y01894D03*
Y0193D03*
X01878Y01894D03*
Y0193D03*
G54D56*
X0225Y01572D03*
X02298D03*
X023Y01637D03*
X02252D03*
G54D57*
X01369Y01424D03*
X01463Y01462D03*
Y01387D03*
G54D58*
X01575Y01469D03*
Y013D03*
G54D59*
X01434Y01673D03*
X01409Y01727D03*
X01359Y01834D03*
G54D60*
X01302Y01872D03*
X0122Y01834D03*
X01427Y01605D03*
X01345Y01566D03*
G54D61*
X01693Y01495D03*
Y0155D03*
G54D62*
X0202Y01247D03*
Y0131D03*
G54D63*
X01906Y01324D03*
Y01217D03*
G54D19*
X01336Y01198D03*
X01401D03*
G54D64*
X01969Y02408D03*
G54D65*
X02453Y01432D03*
G54D66*
X02394Y01524D03*
X02414D03*
X02434D03*
X02453D03*
X02473D03*
X02493D03*
X02512D03*
Y0134D03*
X02493D03*
X02473D03*
X02453D03*
X02434D03*
X02414D03*
X02394D03*
G54D67*
X02545Y01491D03*
Y01471D03*
Y01452D03*
Y01432D03*
Y01412D03*
Y01393D03*
Y01373D03*
X02362D03*
Y01393D03*
Y01412D03*
Y01432D03*
Y01452D03*
Y01471D03*
Y01491D03*
G54D68*
X02391Y03113D03*
X02491D03*
Y02963D03*
X02391D03*
X01447Y03113D03*
X01547D03*
Y02963D03*
X01447D03*
G54D69*
X02686Y01857D03*
X0263D03*
G54D70*
X02626Y01803D03*
Y01746D03*
G54D71*
X02674Y02002D03*
Y01947D03*
X02642D03*
Y02002D03*
G54D72*
X02107Y01946D03*
Y01926D03*
Y01906D03*
Y01887D03*
X02162Y01946D03*
Y01926D03*
Y01906D03*
Y01887D03*
G54D53*
X0178Y01897D03*
Y01916D03*
Y01936D03*
X0172Y01897D03*
Y01916D03*
X0172Y01936D03*
G54D54*
X0176Y01886D03*
X0174D03*
Y01946D03*
X0176D03*
G54D73*
X01869Y0353D03*
X01969D03*
X01769D03*
X02069D03*
X02169D03*
X02069Y02743D03*
X01969D03*
X02169D03*
X01869D03*
X01769D03*
G54D74*
X019Y02503D03*
X0192D03*
X01939D03*
X01959D03*
X01979D03*
X01999D03*
X02018D03*
X02038D03*
Y02314D03*
X02018D03*
X01999D03*
X01979D03*
X01959D03*
X01939D03*
X0192D03*
X019D03*
G54D75*
X02063Y02477D03*
Y02458D03*
Y02438D03*
Y02418D03*
Y02399D03*
Y02379D03*
Y02359D03*
Y02339D03*
X01875D03*
Y02359D03*
Y02379D03*
Y02399D03*
Y02418D03*
Y02438D03*
Y02458D03*
Y02477D03*
G54D19*
X02591Y01295D03*
Y0123D03*
X02654Y01295D03*
Y0123D03*
G54D50*
X04166Y01714D03*
X04126D03*
X04496Y03135D03*
X04536D03*
X04028Y0321D03*
X03988D03*
X04504Y02777D03*
X04465D03*
X04414D03*
X04374D03*
X04414Y02698D03*
X04374D03*
X04333Y02442D03*
X04293D03*
X03988Y03166D03*
X04028D03*
X03988Y03123D03*
X04028D03*
X04496Y03048D03*
X04536D03*
X03988Y0308D03*
X04028D03*
X04536Y03178D03*
X04496D03*
X04536Y03092D03*
X04496D03*
X04028Y03037D03*
X03988D03*
G54D51*
X03829Y03076D03*
Y0317D03*
X03754D03*
X04774Y03076D03*
Y0317D03*
X04699D03*
G54D50*
X05008Y01357D03*
Y01318D03*
X04831Y01265D03*
Y01226D03*
X04965Y01397D03*
Y01357D03*
X0389Y03143D03*
Y03103D03*
X04835Y03143D03*
Y03103D03*
X03642Y01328D03*
Y01367D03*
X03579Y01328D03*
Y01367D03*
G54D55*
X03693Y03141D03*
Y03105D03*
X04638Y03141D03*
Y03105D03*
G54D57*
X04886Y01283D03*
Y01208D03*
X04981Y01245D03*
G54D61*
X04776Y016D03*
Y01655D03*
X04756Y01363D03*
Y01418D03*
G54D69*
X04736Y0354D03*
X04681D03*
X04862Y02426D03*
X04807D03*
X04065Y01676D03*
X0401D03*
X04837Y01539D03*
X04892D03*
X03878Y01533D03*
X03823D03*
X03878Y01379D03*
X03823D03*
X04286Y02489D03*
X04341D03*
G54D76*
X04264Y01348D03*
Y0147D03*
G54D77*
X04372Y0165D03*
X04353D03*
X04333D03*
X04313D03*
X04294D03*
X04274D03*
X04254D03*
X04234D03*
X04215D03*
X04195D03*
X04175D03*
X04156D03*
G54D55*
X04855Y02525D03*
X04818D03*
X04498Y03222D03*
X04534D03*
X04498Y03265D03*
X04534D03*
X04282Y03363D03*
X04246D03*
X04282Y0332D03*
X04246D03*
X04151Y02934D03*
X04188D03*
X04853Y02477D03*
X04817D03*
X04223Y0282D03*
X04187D03*
X04306D03*
X04269D03*
X04597Y01726D03*
X04561D03*
X03869Y0143D03*
X03832D03*
X03869Y01477D03*
X03832D03*
X04295Y0254D03*
X04331D03*
X04287Y02587D03*
X04323D03*
X04246Y03261D03*
X04282D03*
G54D83*
X04096Y02737D03*
Y02787D03*
Y02837D03*
Y02887D03*
X03881Y02737D03*
Y02787D03*
Y02837D03*
Y02887D03*
G54D84*
X04314Y0272D03*
Y027D03*
Y02739D03*
Y02759D03*
X04214D03*
Y02739D03*
Y0272D03*
Y027D03*
G54D85*
X04284Y02769D03*
X04264D03*
X04244D03*
Y0269D03*
X04264D03*
X04284D03*
G54D78*
X04569Y01607D03*
G54D79*
X04608Y01655D03*
X04589D03*
X04569D03*
X04549D03*
X0453D03*
X04608Y0156D03*
X04589D03*
X04569D03*
X04549D03*
X0453D03*
G54D80*
X04612Y0144D03*
X04526D03*
G54D81*
X04912Y01357D03*
X04837D03*
Y01464D03*
X04874D03*
X04912D03*
G54D86*
X04452Y03449D03*
Y03423D03*
Y03398D03*
Y03372D03*
X04604D03*
Y03398D03*
Y03423D03*
Y03449D03*
G54D88*
X04489Y03335D03*
X04515D03*
X04541D03*
X04566D03*
Y03486D03*
X04541D03*
X04515D03*
X04489D03*
G54D92*
X03983Y03407D03*
Y03387D03*
Y03367D03*
Y03348D03*
Y03328D03*
X04159Y03407D03*
Y03387D03*
Y03367D03*
Y03348D03*
Y03328D03*
G54D118*
X03762Y03076D03*
X04707D03*
G54D119*
X0438Y03034D03*
Y03059D03*
Y03085D03*
Y0311D03*
Y03136D03*
Y03162D03*
Y03187D03*
Y03213D03*
X04148Y03034D03*
Y03059D03*
Y03085D03*
Y0311D03*
Y03136D03*
Y03162D03*
Y03187D03*
Y03213D03*
G54D120*
X04724Y03769D03*
X04685Y03808D03*
G54D121*
X03746Y02405D03*
X03758Y0242D03*
X0377Y02435D03*
X03783Y02451D03*
X03795Y02466D03*
X03856Y02543D03*
X03844Y02528D03*
X03832Y02512D03*
X0382Y02497D03*
X03807Y02482D03*
G54D122*
X03853Y0266D03*
X03632Y02381D03*
G54D123*
X04528Y03411D03*
M02*